<?xml version="1.0" encoding="UTF-8" standalone="no"?>
<svg height="98" id="svg2" inkscape:version="0.47 r22583" sodipodi:docname="distributions-OpenSUSE_linux.svg" version="1.1" width="98" xmlns="http://www.w3.org/2000/svg" xmlns:cc="http://creativecommons.org/ns#" xmlns:dc="http://purl.org/dc/elements/1.1/" xmlns:inkscape="http://www.inkscape.org/namespaces/inkscape" xmlns:rdf="http://www.w3.org/1999/02/22-rdf-syntax-ns#" xmlns:sodipodi="http://sodipodi.sourceforge.net/DTD/sodipodi-0.dtd" xmlns:svg="http://www.w3.org/2000/svg" xmlns:xlink="http://www.w3.org/1999/xlink">
  <metadata>
    <rdf:RDF xmlns:cc="http://web.resource.org/cc/" xmlns:dc="http://purl.org/dc/elements/1.1/" xmlns:rdf="http://www.w3.org/1999/02/22-rdf-syntax-ns#">
      <cc:Work rdf:about="">
        <dc:title></dc:title>
        <dc:description></dc:description>
        <dc:subject>
          <rdf:Bag>
            <rdf:li>unsorted</rdf:li>
          </rdf:Bag>
        </dc:subject>
        <dc:publisher>
          <cc:Agent rdf:about="http://www.openclipart.org/">
            <dc:title>Open Clip Art Library, Source: Wikimedia Commons</dc:title>
          </cc:Agent>
        </dc:publisher>
        <dc:creator>
          <cc:Agent>
            <dc:title></dc:title>
          </cc:Agent>
        </dc:creator>
        <dc:rights>
          <cc:Agent>
            <dc:title></dc:title>
          </cc:Agent>
        </dc:rights>
        <dc:date></dc:date>
        <dc:format>image/svg+xml</dc:format>
        <dc:type rdf:resource="http://purl.org/dc/dcmitype/StillImage"/>
        <cc:license rdf:resource="http://creativecommons.org/about/licenses/"/>
        <dc:language>en</dc:language>
      </cc:Work>
    </rdf:RDF>
  </metadata>
  <defs id="defs26">
    <inkscape:perspective id="perspective30" inkscape:persp3d-origin="48.700001 : 20.333333 : 1" inkscape:vp_x="0 : 30.5 : 1" inkscape:vp_y="0 : 1000 : 0" inkscape:vp_z="97.400002 : 30.5 : 1" sodipodi:type="inkscape:persp3d"/>
  </defs>
  <sodipodi:namedview bordercolor="#666666" borderopacity="1" gridtolerance="10" guidetolerance="10" id="namedview24" inkscape:current-layer="svg2" inkscape:cx="48.700001" inkscape:cy="30.5" inkscape:pageopacity="0" inkscape:pageshadow="2" inkscape:window-height="480" inkscape:window-maximized="0" inkscape:window-width="640" inkscape:window-x="0" inkscape:window-y="0" inkscape:zoom="1.0286885" objecttolerance="10" pagecolor="#ffffff" showgrid="false"/>
  <path d="m 44.5,60.4 0,-0.1 c 0,-0.2 -0.1,-0.3 -0.2,-1.8 -0.1,-1.4 -0.3,-5.2 1.6,-7.1 0.7,-0.8 1.9,-1.4 2.7,-1.6 3.7,-0.9 8,-0.3 12.1,4.4 2.1,2.4 3.1,3.5 3.6,4 l 0.4,0.4 c 0.2,0.1 7,3.2 7,3.2 l 0.1,0 0,-0.2 c 0,0 -4.3,-5.6 -3.5,-10.1 0.6,-3.6 3.5,-3.3 7.5,-2.9 1.3,0.2 2.7,0.4 4.3,0.4 4.3,0 8.9,-0.8 11.7,-2 1.9,-0.8 3,-1.4 3.8,-2 0.2,-0.2 0.4,-0.6 0.5,-1 l 0.1,-0.2 c 0.1,-0.3 0.3,-1 0.4,-1.4 0,-0.1 0,-0.3 -0.1,-0.4 l -0.4,0.1 c -1.2,0.8 -4.3,2.2 -7.3,2.2 -3.6,0.1 -10.9,-3.6 -11.6,-4 l -0.1,-0.1 c -0.2,-0.4 -1.3,-3 -1.5,-3.6 5.2,3.5 9.6,5.4 12.9,5.7 3.7,0.3 6.6,-1.7 7.9,-2.6 0.2,-0.1 0.4,-0.2 0.5,-0.3 L 97,39.3 C 96.8,38 94.8,31.67 93.3,30.15 92.9,29.74 92.6,29.33 92,28.95 86.1,26.12 79.7,24.91 73.3,23.88 c 0,0 0,2.75 0,3.04 C 72,26.49 62.6,23.468 53.8,23.164 46.4,22.901 35.6,21.94 21.2,30.77 l -0.4,0.26 C 14,35.2 9.36,40.4 6.92,46.5 6.16,48.4 5.13,52.7 6.14,56.7 c 0.44,1.8 1.26,3.5 2.37,5.1 2.49,3.6 6.69,6 11.19,6.4 6.4,0.5 11.2,-2.3 12.9,-7.7 1.2,-3.7 0,-9.1 -4.5,-11.8 -3.7,-2.3 -7.7,-1.8 -9.9,-0.3 -2,1.4 -3.2,3.4 -3.1,5.7 0,3.9 3.4,6.1 5.9,6.1 0.7,0 1.5,-0.2 2.3,-0.4 0.3,-0.1 0.5,-0.2 0.8,-0.4 l 0.1,-0.1 0.1,0 0,0 c 0.5,-0.4 0.9,-1 0.9,-1.7 0,-0.1 -0.1,-0.3 -0.1,-0.5 -0.3,-1 -1.3,-1.6 -2.3,-1.4 l -0.2,0 -0.2,0 -0.2,0.1 c -0.6,0.2 -1,0.2 -1.1,0.2 -0.3,0 -1.7,-0.5 -1.7,-2 l 0,0 c 0,-0.6 0.2,-1 0.3,-1.2 0.5,-0.7 1.7,-1.4 3.3,-1.3 2.2,0.2 3.7,1.3 4.7,3.4 1,1.9 0.7,4.3 -0.6,6.1 -1.3,1.7 -3.7,2.4 -6.9,2.1 -3.2,-0.4 -5.9,-2.2 -7.4,-5.1 -1.46,-2.8 -1.55,-6.1 -0.2,-8.6 3.2,-6.1 9.3,-6 12.7,-5.5 4.9,0.9 10.6,5.5 12.6,10.7 0.3,0.9 0.4,1.5 0.6,2.1 l 0.2,1 5.6,2.7 0.2,0 z m 39.2,-29.72 0,0 C 82.6,31.66 82,33 82,34.4 c -0.1,3 2.2,5.5 5.2,5.6 1.4,0.1 2.8,-0.4 3.8,-1.4 1.1,-1 1.7,-2.3 1.7,-3.8 0.1,-2.95 -2.2,-5.46 -5.2,-5.56 -1.4,-0.05 -2.8,0.46 -3.8,1.44" id="path4" style="fill:#6eb927;fill-rule:evenodd"/>
  <path d="m 87.2,38.3 0,0 c -2,0 -3.7,-1.8 -3.6,-3.9 0,-1 0.5,-1.89 1.2,-2.57 0.7,-0.68 1.7,-1.04 2.7,-1 2.1,0.07 3.7,1.81 3.6,3.87 0,1 -0.4,1.9 -1.2,2.6 -0.7,0.7 -1.7,1.1 -2.7,1 l 0,0 z m 0.9,-3.4 c 0.9,0 1.7,-0.5 1.7,-1.1 0,-0.6 -0.8,-1.09 -1.7,-1.09 -0.9,0 -1.7,0.49 -1.7,1.09 0,0.6 0.8,1.1 1.7,1.1" id="path6" style="fill:#6eb927"/>
  <path d="M 4.17,71.3 C 2.972,71.3 2,72.3 2,73.4 v 4.5 C 2,79.1 2.939,80 4.09,80 h 2.93 c 1.15,0 2.09,-0.9 2.09,-2.1 v -4.5 c 0,-1.2 -0.97,-2.1 -2.16,-2.1 H 4.17 z m -0.63,6.4 v -4.1 c 0,-0.5 0.39,-0.9 0.88,-0.9 h 2.27 c 0.48,0 0.89,0.4 0.89,0.9 v 4.1 c 0,0.5 -0.4,0.9 -0.89,0.9 H 4.4 c -0.49,0 -0.86,-0.4 -0.86,-0.9 z" id="path8" style="fill:#6eb927"/>
  <path d="m 15.7,71.3 c -0.8,0 -1.4,0.3 -2,0.5 -0.3,0.2 -0.5,0.3 -0.7,0.3 -0.1,0 -0.2,-0.1 -0.3,-0.1 l -0.2,-0.4 c 0,-0.1 -0.2,-0.3 -0.4,-0.3 h -0.33 c -0.28,0 -0.5,0.3 -0.5,0.6 v 11.4 c 0,0.4 0.28,0.7 0.64,0.7 h 0.29 c 0.3,0 0.6,-0.3 0.6,-0.7 v -3.8 c 0,-0.1 0.1,-0.2 0.2,-0.2 0.2,0 0.4,0.1 0.7,0.3 0.6,0.2 1.2,0.5 2,0.5 H 16 c 1.5,0 2.4,-0.9 2.4,-2.2 v -4.4 c 0,-1.4 -0.9,-2.2 -2.4,-2.2 h -0.3 z m -2.9,6.3 v -3.9 c 0,-0.5 0.4,-1 1,-1 h 2.1 c 0.6,0 1,0.5 1,1 v 3.9 c 0,0.6 -0.5,1 -1,1 h -2.1 c -0.6,0 -1,-0.4 -1,-1 z" id="path10" style="fill:#6eb927"/>
  <path d="m 22.7,71.3 c -1.2,0 -2.1,1 -2.1,2.1 v 4.5 c 0,1.1 0.9,2.1 2,2.1 h 3 c 0.4,0 0.7,-0.2 0.7,-0.6 v -0.2 c 0,-0.3 -0.3,-0.6 -0.7,-0.6 h -2.4 c -0.7,0 -1.1,-0.3 -1.1,-1 0,0 0,-1.1 0,-1.3 0.2,0 4.5,0 4.5,0 0.7,0 1.1,-0.4 1.1,-1.2 v -1.7 c 0,-1.2 -0.9,-2.1 -2.1,-2.1 h -2.9 z m -0.6,2.3 c 0,-0.5 0.4,-0.9 0.9,-0.9 h 2.3 c 0.5,0 0.9,0.4 0.9,0.9 0,0 0,1.2 0,1.4 -0.2,0 -3.9,0 -4.1,0 0,-0.2 0,-1.4 0,-1.4 z" id="path12" style="fill:#6eb927"/>
  <path d="m 33.9,71.3 c -0.8,0 -1.4,0.3 -2,0.5 -0.3,0.2 -0.5,0.3 -0.8,0.3 -0.1,0 -0.1,0 -0.2,-0.2 L 30.7,71.6 C 30.6,71.4 30.5,71.3 30.2,71.3 H 30 c -0.3,0 -0.5,0.3 -0.5,0.6 v 7.5 c 0,0.3 0.3,0.6 0.6,0.6 h 0.3 c 0.3,0 0.6,-0.3 0.6,-0.6 v -5.7 c 0,-0.5 0.4,-1 1,-1 h 2.1 c 0.5,0 1,0.5 1,1 v 5.7 c 0,0.3 0.3,0.6 0.6,0.6 H 36 c 0.3,0 0.6,-0.3 0.6,-0.6 v -5.9 c 0,-1.4 -0.9,-2.2 -2.4,-2.2 h -0.3 z" id="path14" style="fill:#6eb927"/>
  <path d="m 42.8,65.6 c -2.4,0 -3.7,2 -3.7,3.4 v 1.8 c 0,2 1.7,3.3 3.2,3.3 h 5.4 c 0.7,0 0.9,0.4 0.9,0.8 v 1.2 c 0,0.1 -0.1,1.2 -0.9,1.2 h -7.4 c -0.7,0 -1.2,0.5 -1.2,1.2 v 0.3 c 0,0.7 0.5,1.2 1.2,1.2 h 7.8 c 2.1,0 3.4,-1.4 3.4,-3.6 v -1.9 c 0,-2.1 -1.5,-3 -3,-3 h -5.3 c -0.8,0 -1.2,-0.6 -1.2,-1 v -1.1 c 0,-0.7 0.5,-1 1.3,-1 h 5.9 c 0.7,0 1.2,-0.6 1.2,-1.3 v -0.3 c 0,-0.7 -0.5,-1.2 -1.3,-1.2 h -6.3 z" id="S" style="fill:#0d5148"/>
  <path d="m 65,65.6 c -0.7,0 -1.3,0.6 -1.3,1.3 V 76 c 0,0.7 -0.6,1.3 -1.3,1.3 h -4.1 c -0.8,0 -1.4,-0.6 -1.4,-1.3 v -9.1 c 0,-0.7 -0.5,-1.3 -1.2,-1.3 h -0.4 c -0.7,0 -1.3,0.6 -1.3,1.3 v 9.4 c 0,2.2 1.7,3.8 4.1,3.8 h 4.4 c 2.4,0 4.1,-1.6 4.1,-3.8 v -9.4 c 0,-0.7 -0.5,-1.3 -1.2,-1.3 H 65 z" id="path17" style="fill:#0d5148"/>
  <use height="61" id="S2" transform="translate(30.1,0)" width="97.400002" x="0" xlink:href="#S" y="0"/>
  <path d="m 85.3,65.6 c -0.7,0 -1.2,0.5 -1.2,1.2 v 12 c 0,0.7 0.5,1.2 1.2,1.2 h 9.5 c 0.8,0 1.3,-0.5 1.3,-1.2 v -0.3 c 0,-0.7 -0.5,-1.2 -1.3,-1.2 0,0 -7.4,0 -7.8,0 0,-0.3 0,-2.8 0,-3.1 0.4,0 5.8,0 5.8,0 0.7,0 1.2,-0.5 1.2,-1.2 v -0.3 c 0,-0.7 -0.5,-1.2 -1.2,-1.2 0,0 -5.4,0 -5.8,0 0,-0.3 0,-2.8 0,-3.1 0.4,0 7.4,0 7.4,0 0.8,0 1.3,-0.6 1.3,-1.3 v -0.3 c 0,-0.7 -0.5,-1.2 -1.3,-1.2 h -9.1 z" id="path20" style="fill:#0d5148"/>
</svg>
