<?xml version="1.0" encoding="UTF-8" standalone="no"?>
<svg height="120" id="svg2" inkscape:output_extension="org.inkscape.output.svg.inkscape" inkscape:version="0.46" sodipodi:docname="Suse.svg" sodipodi:version="0.32" version="1.0" width="120" xmlns="http://www.w3.org/2000/svg" xmlns:cc="http://creativecommons.org/ns#" xmlns:dc="http://purl.org/dc/elements/1.1/" xmlns:inkscape="http://www.inkscape.org/namespaces/inkscape" xmlns:rdf="http://www.w3.org/1999/02/22-rdf-syntax-ns#" xmlns:sodipodi="http://sodipodi.sourceforge.net/DTD/sodipodi-0.dtd" xmlns:svg="http://www.w3.org/2000/svg">
  <metadata>
    <rdf:RDF xmlns:cc="http://web.resource.org/cc/" xmlns:dc="http://purl.org/dc/elements/1.1/" xmlns:rdf="http://www.w3.org/1999/02/22-rdf-syntax-ns#">
      <cc:Work rdf:about="">
        <dc:title></dc:title>
        <dc:description></dc:description>
        <dc:subject>
          <rdf:Bag>
            <rdf:li>unsorted</rdf:li>
          </rdf:Bag>
        </dc:subject>
        <dc:publisher>
          <cc:Agent rdf:about="http://www.openclipart.org/">
            <dc:title>Open Clip Art Library, Source: Wikimedia Commons, Source: Wikimedia Commons, Source: Wikimedia Commons, Source: Wikimedia Commons</dc:title>
          </cc:Agent>
        </dc:publisher>
        <dc:creator>
          <cc:Agent>
            <dc:title></dc:title>
          </cc:Agent>
        </dc:creator>
        <dc:rights>
          <cc:Agent>
            <dc:title></dc:title>
          </cc:Agent>
        </dc:rights>
        <dc:date></dc:date>
        <dc:format>image/svg+xml</dc:format>
        <dc:type rdf:resource="http://purl.org/dc/dcmitype/StillImage"/>
        <cc:license rdf:resource="http://creativecommons.org/about/licenses/"/>
        <dc:language>en</dc:language>
      </cc:Work>
    </rdf:RDF>
  </metadata>
  <sodipodi:namedview bordercolor="#666666" borderopacity="1.0" gridtolerance="10.0" guidetolerance="10.0" id="base" inkscape:current-layer="svg2" inkscape:cx="70" inkscape:cy="62.535778" inkscape:pageopacity="0.0" inkscape:pageshadow="2" inkscape:window-height="674" inkscape:window-width="640" inkscape:window-x="233" inkscape:window-y="238" inkscape:zoom="3.9928571" objecttolerance="10.0" pagecolor="#ffffff" showgrid="false"/>
  <defs id="defs4">
    <inkscape:perspective id="perspective10" inkscape:persp3d-origin="70 : 28.333333 : 1" inkscape:vp_x="0 : 42.5 : 1" inkscape:vp_y="0 : 1000 : 0" inkscape:vp_z="140 : 42.5 : 1" sodipodi:type="inkscape:persp3d"/>
  </defs>
  <path d="M 57.384428,33.563544 C 54.452302,33.565326 51.735055,33.63272 50.455439,33.774328 C 42.697346,34.632969 35.885805,36.697458 28.308121,40.480619 C 16.094903,46.578085 8.42642,53.479387 4.095803,62.276044 C 2.156729,66.214766 1.4857639,68.974435 1.4631689,73.100238 C 1.4488659,75.710629 1.640444,77.095009 2.314598,79.218234 C 4.742985,86.866281 11.665721,92.323818 19.686013,92.920055 C 27.446969,93.496968 33.213976,90.425356 35.790035,84.345987 C 36.723985,82.141984 37.004567,80.228072 36.744244,77.816202 C 36.107704,71.918216 32.291871,67.432174 26.654167,65.947851 C 24.927863,65.493329 22.270959,65.479081 20.576609,65.942936 C 15.931064,67.214746 12.551697,71.402499 13.794415,76.571011 C 14.848754,80.956112 19.97251,83.704153 24.305357,81.963492 C 26.035564,81.26842 27.042796,80.427322 26.541625,78.580951 C 26.03081,76.699262 24.767806,76.255424 22.347996,76.93379 C 21.395504,77.200826 20.721661,77.029777 20.008989,76.384742 C 18.813352,75.302579 18.832517,73.648545 20.057921,72.467831 C 21.549562,71.030618 24.276589,70.909579 26.766698,72.17369 C 29.231078,73.424767 31.031312,76.965718 30.642252,79.796712 C 30.224588,82.835693 28.48101,84.933176 25.558055,85.909817 C 24.582196,86.23586 24.178416,86.273433 21.878225,86.267692 C 19.410955,86.261508 19.228897,86.238858 17.841209,85.772559 C 12.635594,84.023335 9.197166,79.282101 9.165294,73.806157 C 9.14517,70.348064 10.372882,67.556291 13.099585,64.864434 C 15.662733,62.334037 18.973652,61.097993 23.189647,61.099532 C 28.430565,61.101423 32.78213,62.93349 36.59256,66.746905 C 39.460168,69.616795 41.625274,73.506532 42.4597,77.276944 L 42.723939,78.473094 L 50.249922,82.164498 C 50.310279,82.109287 50.292385,81.602618 50.21077,81.25756 C 49.902351,79.953595 49.854056,76.322439 50.122684,74.78662 C 50.513365,72.553107 51.04148,71.390667 52.168103,70.276523 C 53.90509,68.558809 56.049154,67.818572 59.302608,67.815587 C 63.630146,67.811644 67.30267,69.39726 70.586687,72.693338 C 71.323586,73.43294 72.929771,75.184769 74.158848,76.585734 C 75.387938,77.986671 76.580888,79.267003 76.811039,79.429045 C 77.456775,79.883649 86.229553,83.901095 86.338423,83.792049 C 86.391343,83.739038 86.080313,83.179819 85.643533,82.546886 C 83.933983,80.069434 82.484483,76.878309 81.929483,74.374817 C 81.549813,72.662099 81.653933,70.134295 82.154593,68.982349 C 82.623323,67.90382 83.622673,66.992683 84.679543,66.678283 C 85.811623,66.341477 88.282703,66.361815 91.598793,66.737114 C 95.575913,67.187207 97.774543,67.273602 100.39704,67.075338 C 106.36938,66.623841 110.27906,65.641636 114.65626,63.501637 C 116.94386,62.383199 117.43023,61.951487 117.92501,60.614189 C 118.3968,59.339138 118.62061,58.118935 118.38009,58.118935 C 118.29497,58.118935 117.49168,58.464411 116.59403,58.888601 C 113.22572,60.480307 110.33389,61.187643 107.76641,61.050492 C 105.09737,60.907912 100.72578,59.44193 95.537913,56.947299 L 93.174403,55.809965 L 91.246453,51.192079 L 93.047193,52.314652 C 96.009423,54.281669 100.79989,56.636707 103.7196,57.56008 C 108.1801,58.970716 111.72998,58.786727 115.32173,56.957103 C 116.58771,56.31223 118.96243,54.68229 118.96243,54.456947 C 118.96243,54.032192 117.69248,49.903835 116.98549,48.030102 C 115.21753,43.344391 114.01239,41.782236 111.09879,40.392386 C 107.86409,38.849355 104.29926,37.743869 97.744823,36.249971 C 94.611143,35.584597 91.461443,34.940562 88.281073,34.543993 L 88.202773,38.426584 C 80.793113,36.122275 74.310045,34.598988 67.131983,33.857685 C 65.277105,33.666106 61.154328,33.561248 57.384428,33.563544 z M 106.47947,41.514998 C 108.87316,41.508879 111.15734,42.739631 112.49341,44.966188 C 114.77157,48.762829 112.90405,53.695182 108.64233,55.133463 C 105.82982,56.082661 102.48047,54.948299 100.7787,52.471534 C 99.381953,50.43873 99.147753,47.81428 100.16214,45.613288 C 100.73852,44.362643 102.11031,42.883103 103.22539,42.314079 C 104.27751,41.777117 105.39141,41.517766 106.47947,41.514998 z M 106.40116,43.544546 C 105.27942,43.568275 104.13644,43.985022 103.17157,44.858344 C 101.69838,46.191658 101.22527,48.602867 102.07544,50.442011 C 102.77343,51.952008 104.09542,52.993964 105.63782,53.246089 C 107.82504,53.603654 109.89702,52.583347 110.80519,50.696933 C 111.42641,49.406471 111.53707,48.520914 111.22602,47.304573 C 110.60859,44.890164 108.54262,43.499167 106.40116,43.544546 z M 107.54621,46.039786 C 108.37776,46.039786 109.37831,46.559596 109.50356,47.059444 C 109.67372,47.738701 109.44346,48.207904 108.78424,48.544833 C 107.76629,49.065114 106.45785,48.917902 105.69162,48.196789 C 104.74698,47.307719 105.83731,46.039786 107.54621,46.039786 z" id="Geeko" style="fill:#82bf46"/>
</svg>
