<?xml version="1.0" encoding="UTF-8" standalone="no"?>
<!-- Created with Inkscape (http://www.inkscape.org/) --><svg height="48" id="svg7836" inkscape:output_extension="org.inkscape.output.svg.inkscape" inkscape:version="0.46" sodipodi:docname="gnome-fs-blockdev.svg" sodipodi:version="0.32" version="1.0" width="48" xmlns="http://www.w3.org/2000/svg" xmlns:cc="http://creativecommons.org/ns#" xmlns:dc="http://purl.org/dc/elements/1.1/" xmlns:inkscape="http://www.inkscape.org/namespaces/inkscape" xmlns:rdf="http://www.w3.org/1999/02/22-rdf-syntax-ns#" xmlns:sodipodi="http://sodipodi.sourceforge.net/DTD/sodipodi-0.dtd" xmlns:svg="http://www.w3.org/2000/svg" xmlns:xlink="http://www.w3.org/1999/xlink">
  <metadata>
    <rdf:RDF xmlns:cc="http://web.resource.org/cc/" xmlns:dc="http://purl.org/dc/elements/1.1/" xmlns:rdf="http://www.w3.org/1999/02/22-rdf-syntax-ns#">
      <cc:Work rdf:about="">
        <dc:title></dc:title>
        <dc:description></dc:description>
        <dc:subject>
          <rdf:Bag>
            <rdf:li>unsorted</rdf:li>
          </rdf:Bag>
        </dc:subject>
        <dc:publisher>
          <cc:Agent rdf:about="http://www.openclipart.org/">
            <dc:title>Open Clip Art Library, Source: GNOME-Colors, Source: GNOME-Colors, Source: GNOME-Colors, Source: GNOME-Colors, Source: GNOME-Colors</dc:title>
          </cc:Agent>
        </dc:publisher>
        <dc:creator>
          <cc:Agent>
            <dc:title></dc:title>
          </cc:Agent>
        </dc:creator>
        <dc:rights>
          <cc:Agent>
            <dc:title></dc:title>
          </cc:Agent>
        </dc:rights>
        <dc:date></dc:date>
        <dc:format>image/svg+xml</dc:format>
        <dc:type rdf:resource="http://purl.org/dc/dcmitype/StillImage"/>
        <cc:license rdf:resource="http://creativecommons.org/licenses/GPL/2.0/"/>
        <dc:language>en</dc:language>
      </cc:Work>
    </rdf:RDF>
  </metadata>
  <sodipodi:namedview bordercolor="#666666" borderopacity="1.0" gridtolerance="10.0" guidetolerance="10.0" id="base" inkscape:current-layer="svg7836" inkscape:cx="11.776639" inkscape:cy="7.2463763" inkscape:pageopacity="0.0" inkscape:pageshadow="2" inkscape:window-height="1000" inkscape:window-width="1680" inkscape:window-x="0" inkscape:window-y="25" inkscape:zoom="10.291667" objecttolerance="10.0" pagecolor="#ffffff" showgrid="true">
    <inkscape:grid id="grid9762" type="xygrid"/>
  </sodipodi:namedview>
  <defs id="defs7838">
    <linearGradient id="linearGradient5531" inkscape:collect="always">
      <stop id="stop5533" offset="0" style="stop-color:#fcaf3e;stop-opacity:1"/>
      <stop id="stop5535" offset="1" style="stop-color:#f57900;stop-opacity:1"/>
    </linearGradient>
    <linearGradient gradientTransform="translate(24,22.999999)" gradientUnits="userSpaceOnUse" id="linearGradient5521" inkscape:collect="always" x1="17" x2="17" xlink:href="#linearGradient5531" y1="3.0000002" y2="13"/>
    <linearGradient id="linearGradient6294" inkscape:collect="always">
      <stop id="stop6296" offset="0" style="stop-color:#729fcf;stop-opacity:1"/>
      <stop id="stop6298" offset="1" style="stop-color:#3465a4;stop-opacity:1"/>
    </linearGradient>
    <linearGradient gradientTransform="translate(14,22.999999)" gradientUnits="userSpaceOnUse" id="linearGradient6292" inkscape:collect="always" x1="17" x2="17" xlink:href="#linearGradient6294" y1="3.0000002" y2="13"/>
    <linearGradient id="linearGradient5537" inkscape:collect="always">
      <stop id="stop5539" offset="0" style="stop-color:#da3f3f;stop-opacity:1"/>
      <stop id="stop5541" offset="1" style="stop-color:#c22f2f;stop-opacity:1"/>
    </linearGradient>
    <linearGradient gradientTransform="translate(14,32.999999)" gradientUnits="userSpaceOnUse" id="linearGradient5527" inkscape:collect="always" x1="17" x2="17" xlink:href="#linearGradient5537" y1="3.0000002" y2="13"/>
    <linearGradient id="linearGradient5543" inkscape:collect="always">
      <stop id="stop5545" offset="0" style="stop-color:#a7cc5c;stop-opacity:1"/>
      <stop id="stop5547" offset="1" style="stop-color:#789e2d;stop-opacity:1"/>
    </linearGradient>
    <linearGradient gradientTransform="translate(24,32.999999)" gradientUnits="userSpaceOnUse" id="linearGradient5529" inkscape:collect="always" x1="17" x2="17" xlink:href="#linearGradient5543" y1="3.0000002" y2="13"/>
    <filter id="filter6711" inkscape:collect="always">
      <feGaussianBlur id="feGaussianBlur6713" inkscape:collect="always" stdDeviation="0.65"/>
    </filter>
    <linearGradient id="linearGradient7577">
      <stop id="stop7579" offset="0" style="stop-color:#000000;stop-opacity:0.4"/>
      <stop id="stop7581" offset="1" style="stop-color:#000000;stop-opacity:0.4"/>
    </linearGradient>
    <linearGradient gradientUnits="userSpaceOnUse" id="linearGradient5931" inkscape:collect="always" x1="22.28924" x2="25.71076" xlink:href="#linearGradient7577" y1="12.965953" y2="25.735243"/>
    <radialGradient cx="605.71429" cy="486.64789" fx="605.71429" fy="486.64789" gradientTransform="matrix(-2.774389,0,0,1.969706,112.7623,-872.8854)" gradientUnits="userSpaceOnUse" id="radialGradient8272" inkscape:collect="always" r="117.14286" xlink:href="#linearGradient5060"/>
    <linearGradient id="linearGradient5060" inkscape:collect="always">
      <stop id="stop5062" offset="0" style="stop-color:black;stop-opacity:1;"/>
      <stop id="stop5064" offset="1" style="stop-color:black;stop-opacity:0;"/>
    </linearGradient>
    <radialGradient cx="605.71429" cy="486.64789" fx="605.71429" fy="486.64789" gradientTransform="matrix(2.774389,0,0,1.969706,-1891.633,-872.8854)" gradientUnits="userSpaceOnUse" id="radialGradient8270" inkscape:collect="always" r="117.14286" xlink:href="#linearGradient5060"/>
    <linearGradient id="linearGradient5048">
      <stop id="stop5050" offset="0" style="stop-color:black;stop-opacity:0;"/>
      <stop id="stop5056" offset="0.5" style="stop-color:black;stop-opacity:1;"/>
      <stop id="stop5052" offset="1" style="stop-color:black;stop-opacity:0;"/>
    </linearGradient>
    <linearGradient gradientTransform="matrix(2.774389,0,0,1.969706,-1892.179,-872.8854)" gradientUnits="userSpaceOnUse" id="linearGradient8268" inkscape:collect="always" x1="302.85715" x2="302.85715" xlink:href="#linearGradient5048" y1="366.64789" y2="609.50507"/>
    <linearGradient id="linearGradient9111">
      <stop id="stop9113" offset="0" style="stop-color:#ffffff;stop-opacity:1"/>
      <stop id="stop9115" offset="1" style="stop-color:#ffffff;stop-opacity:0"/>
    </linearGradient>
    <linearGradient gradientTransform="translate(-0.3124939,13.883653)" gradientUnits="userSpaceOnUse" id="linearGradient4045" x1="320.01709" x2="320.01709" xlink:href="#linearGradient9111" y1="79.980797" y2="74.42086"/>
    <linearGradient id="linearGradient9101">
      <stop id="stop9103" offset="0" style="stop-color:#ffffff;stop-opacity:1"/>
      <stop id="stop9105" offset="1" style="stop-color:#ffffff;stop-opacity:0"/>
    </linearGradient>
    <linearGradient gradientTransform="matrix(0.1964069,0,0,0.1964069,291.11029,53.069992)" gradientUnits="userSpaceOnUse" id="linearGradient4048" x1="115.948" x2="210.23586" xlink:href="#linearGradient9101" y1="186.81287" y2="85.606262"/>
    <radialGradient cx="113.0654" cy="97.587898" fx="113.667" fy="98" gradientTransform="matrix(2.4956521,0,0,2.4956521,-223.97574,-53.226089)" gradientUnits="userSpaceOnUse" id="radialGradient4128" r="2.5631001" xlink:href="#XMLID_64_"/>
    <linearGradient gradientTransform="matrix(2.4956521,0,0,2.4956521,-223.97574,-53.226089)" gradientUnits="userSpaceOnUse" id="linearGradient4126" x1="113.0654" x2="113.0654" xlink:href="#XMLID_63_" y1="100.6621" y2="94.512703"/>
    <radialGradient cx="127.31733" cy="143.82751" fx="127.31733" fy="143.82751" gradientTransform="matrix(0.1691796,-2.118677e-2,7.64681e-3,6.311337e-2,291.54812,67.154866)" gradientUnits="userSpaceOnUse" id="radialGradient4057" r="78.728165" xlink:href="#linearGradient7609"/>
    <radialGradient cx="230" cy="133" fx="230" fy="133" gradientTransform="matrix(-0.1964069,0,0,0.4901248,348.1398,14.167053)" gradientUnits="userSpaceOnUse" id="radialGradient4060" r="16.5" xlink:href="#linearGradient7665"/>
    <linearGradient id="linearGradient7665">
      <stop id="stop7667" offset="0" style="stop-color:#ffffff;stop-opacity:1"/>
      <stop id="stop7669" offset="1" style="stop-color:#ffffff;stop-opacity:0"/>
    </linearGradient>
    <radialGradient cx="230" cy="133" fx="230" fy="133" gradientTransform="matrix(0.1964069,0,0,0.4901248,290.75046,14.167053)" gradientUnits="userSpaceOnUse" id="radialGradient4063" r="16.5" xlink:href="#linearGradient7665"/>
    <filter height="1.4934545" id="filter7557" width="1.2185298" x="-0.10926491" y="-0.24672721">
      <feGaussianBlur id="feGaussianBlur7559" inkscape:collect="always" stdDeviation="3.1868932"/>
    </filter>
    <linearGradient id="linearGradient7537">
      <stop id="stop7539" offset="0" style="stop-color:#ffffff;stop-opacity:0.24752475"/>
      <stop id="stop7561" offset="0.38571429" style="stop-color:#ffffff;stop-opacity:0.61176473"/>
      <stop id="stop7541" offset="1" style="stop-color:#ffffff;stop-opacity:0"/>
    </linearGradient>
    <linearGradient gradientUnits="userSpaceOnUse" id="linearGradient4100" x1="152" x2="222" xlink:href="#linearGradient7537" y1="202.5" y2="202.5"/>
    <linearGradient id="linearGradient4144">
      <stop id="stop4146" offset="0" style="stop-color:#ffffff;stop-opacity:1"/>
      <stop id="stop4148" offset="1" style="stop-color:#ffffff;stop-opacity:0"/>
    </linearGradient>
    <linearGradient gradientTransform="matrix(0.7481482,0,0,1,76.821909,0)" gradientUnits="userSpaceOnUse" id="linearGradient7755" x1="305.02817" x2="302.04178" xlink:href="#linearGradient4144" y1="76.907806" y2="76.907806"/>
    <linearGradient id="linearGradient7691">
      <stop id="stop7693" offset="0" style="stop-color:#ffffff;stop-opacity:1"/>
      <stop id="stop7695" offset="1" style="stop-color:#ffffff;stop-opacity:0"/>
    </linearGradient>
    <radialGradient cx="85.750008" cy="214.08336" fx="85.750008" fy="214.08336" gradientTransform="matrix(0.2665522,9.092593e-2,-2.342877e-2,7.099072e-2,291.11104,54.883977)" gradientUnits="userSpaceOnUse" id="radialGradient7753" r="14" xlink:href="#linearGradient7691"/>
    <linearGradient id="linearGradient4236">
      <stop id="stop4238" offset="0" style="stop-color:#eeeeee;stop-opacity:1"/>
      <stop id="stop4240" offset="1" style="stop-color:#eeeeee;stop-opacity:0"/>
    </linearGradient>
    <linearGradient gradientTransform="matrix(5.0962816,0,0,5.0962816,21.323205,37.043678)" gradientUnits="userSpaceOnUse" id="linearGradient7751" x1="12.277412" x2="12.221823" xlink:href="#linearGradient4236" y1="37.205811" y2="33.758667"/>
    <linearGradient id="linearGradient4110">
      <stop id="stop4112" offset="0" style="stop-color:#000000;stop-opacity:1"/>
      <stop id="stop4114" offset="1" style="stop-color:#bbbbbb;stop-opacity:0"/>
    </linearGradient>
    <linearGradient gradientTransform="matrix(5.0962816,0,0,5.0962816,25.377261,30.286921)" gradientUnits="userSpaceOnUse" id="linearGradient7749" x1="7.0625" x2="24.6875" xlink:href="#linearGradient4110" y1="35.28125" y2="35.28125"/>
    <filter height="1.0836165" id="filter7527" width="1.8027184" x="-0.40135923" y="-0.041808251">
      <feGaussianBlur id="feGaussianBlur7529" inkscape:collect="always" stdDeviation="0.52260316"/>
    </filter>
    <radialGradient cx="43.5625" cy="202.25" fx="43.5625" fy="202.25" gradientTransform="matrix(3.16,0,0,11.28,-94.095,-2079.13)" gradientUnits="userSpaceOnUse" id="radialGradient4102" r="1.5625" xlink:href="#linearGradient7507"/>
    <filter height="1.0837955" id="filter4116" width="1.8044378" x="-0.40221885" y="-0.041897796">
      <feGaussianBlur id="feGaussianBlur4118" inkscape:collect="always" stdDeviation="0.52372246"/>
    </filter>
    <linearGradient id="linearGradient7507">
      <stop id="stop7509" offset="0" style="stop-color:#ffffff;stop-opacity:1"/>
      <stop id="stop7511" offset="1" style="stop-color:#ffffff;stop-opacity:0"/>
    </linearGradient>
    <radialGradient cx="43.5625" cy="202.25" fx="43.5625" fy="202.25" gradientTransform="matrix(3.16,0,0,11.28,-94.095,-2079.13)" gradientUnits="userSpaceOnUse" id="radialGradient4104" r="1.5625" xlink:href="#linearGradient7507"/>
    <radialGradient cx="113.0654" cy="97.587898" fx="113.667" fy="98" gradientTransform="matrix(2.4956521,0,0,2.4956521,-223.97574,-53.226089)" gradientUnits="userSpaceOnUse" id="radialGradient4132" r="2.5631001" xlink:href="#XMLID_64_"/>
    <linearGradient gradientTransform="matrix(2.4956521,0,0,2.4956521,-223.97574,-53.226089)" gradientUnits="userSpaceOnUse" id="linearGradient4130" x1="113.0654" x2="113.0654" xlink:href="#XMLID_63_" y1="100.6621" y2="94.512703"/>
    <radialGradient cx="113.0654" cy="97.587898" fx="113.667" fy="98" gradientTransform="matrix(2.4956521,0,0,2.4956521,-223.97574,-53.226089)" gradientUnits="userSpaceOnUse" id="radialGradient4136" r="2.5631001" xlink:href="#XMLID_64_"/>
    <linearGradient gradientTransform="matrix(2.4956521,0,0,2.4956521,-223.97574,-53.226089)" gradientUnits="userSpaceOnUse" id="linearGradient4134" x1="113.0654" x2="113.0654" xlink:href="#XMLID_63_" y1="100.6621" y2="94.512703"/>
    <radialGradient cx="113.0654" cy="97.587898" fx="113.667" fy="98" gradientUnits="userSpaceOnUse" id="XMLID_64_" r="2.5631001">
      <stop id="stop505" offset="0" style="stop-color:#eeeeee;stop-opacity:1"/>
      <stop id="stop507" offset="0.16" style="stop-color:#cecece;stop-opacity:1"/>
      <stop id="stop509" offset="0.4675" style="stop-color:#888888;stop-opacity:1"/>
      <stop id="stop511" offset="1" style="stop-color:#555555;stop-opacity:1"/>
    </radialGradient>
    <radialGradient cx="113.0654" cy="97.587898" fx="113.667" fy="98" gradientTransform="matrix(2.4956521,0,0,2.4956521,-223.97574,-53.226089)" gradientUnits="userSpaceOnUse" id="radialGradient4140" r="2.5631001" xlink:href="#XMLID_64_"/>
    <linearGradient gradientUnits="userSpaceOnUse" id="XMLID_63_" x1="113.0654" x2="113.0654" y1="100.6621" y2="94.512703">
      <stop id="stop496" offset="0" style="stop-color:#eeeeee;stop-opacity:1"/>
      <stop id="stop498" offset="0.66860002" style="stop-color:#dddddd;stop-opacity:1"/>
      <stop id="stop500" offset="1" style="stop-color:#555555;stop-opacity:1"/>
    </linearGradient>
    <linearGradient gradientTransform="matrix(2.4956521,0,0,2.4956521,-223.97574,-53.226089)" gradientUnits="userSpaceOnUse" id="linearGradient4138" x1="113.0654" x2="113.0654" xlink:href="#XMLID_63_" y1="100.6621" y2="94.512703"/>
    <radialGradient cx="142.62215" cy="191.85428" fx="142.62215" fy="191.85428" gradientTransform="matrix(0.155354,0,0,-9.045696e-2,296.87519,93.678924)" gradientUnits="userSpaceOnUse" id="radialGradient4078" r="78.728165" xlink:href="#linearGradient7609"/>
    <linearGradient id="linearGradient7609">
      <stop id="stop7611" offset="0" style="stop-color:#ffffff;stop-opacity:1"/>
      <stop id="stop7677" offset="0.47025558" style="stop-color:#e7e7e7;stop-opacity:1"/>
      <stop id="stop7613" offset="0.67183787" style="stop-color:#8c8c8c;stop-opacity:1"/>
      <stop id="stop7617" offset="0.83542866" style="stop-color:#dddddd;stop-opacity:1"/>
      <stop id="stop7615" offset="1" style="stop-color:#a8a8a8;stop-opacity:1"/>
    </linearGradient>
    <radialGradient cx="141.74666" cy="206.42612" fx="141.74666" fy="206.42612" gradientTransform="matrix(0.3079313,-3.68762e-3,2.27901e-3,0.2121779,275.0745,43.487346)" gradientUnits="userSpaceOnUse" id="radialGradient4081" r="78.728165" xlink:href="#linearGradient7609"/>
    <linearGradient id="linearGradient10652">
      <stop id="stop10654" offset="0" style="stop-color:#535353;stop-opacity:1"/>
      <stop id="stop10656" offset="1" style="stop-color:#babdb6;stop-opacity:1"/>
    </linearGradient>
    <linearGradient gradientTransform="translate(0,16)" gradientUnits="userSpaceOnUse" id="linearGradient10658" x1="317.625" x2="312.125" xlink:href="#linearGradient10652" y1="72.5" y2="55.25"/>
    <linearGradient id="linearGradient7497">
      <stop id="stop7499" offset="0" style="stop-color:#ffffff;stop-opacity:1"/>
      <stop id="stop7501" offset="1" style="stop-color:#ffffff;stop-opacity:0"/>
    </linearGradient>
    <radialGradient cx="150.17931" cy="301.80243" fx="150.17931" fy="301.80243" gradientTransform="matrix(0.1949405,2.435491e-2,-1.29477e-2,0.1071189,295.23816,53.829929)" gradientUnits="userSpaceOnUse" id="radialGradient4089" r="106.18474" xlink:href="#linearGradient7497"/>
    <linearGradient id="linearGradient4244">
      <stop id="stop4246" offset="0" style="stop-color:#efefef;stop-opacity:1"/>
      <stop id="stop7563" offset="0.69516969" style="stop-color:#bcbcbc;stop-opacity:1"/>
      <stop id="stop4248" offset="1" style="stop-color:#e4e4e4;stop-opacity:1"/>
    </linearGradient>
    <radialGradient cx="15.571491" cy="2.958519" fx="15.571491" fy="2.958519" gradientTransform="matrix(1.2874573,0.7785045,-0.7114536,1.164774,292.94174,56.71277)" gradientUnits="userSpaceOnUse" id="radialGradient4092" r="20.935818" xlink:href="#linearGradient4244"/>
    <linearGradient id="linearGradient4120">
      <stop id="stop4122" offset="0" style="stop-color:#555753;stop-opacity:1"/>
      <stop id="stop4124" offset="1" style="stop-color:#2e3436;stop-opacity:1"/>
    </linearGradient>
    <linearGradient gradientTransform="matrix(1.0009449,0,0,0.560284,295.29831,72.625339)" gradientUnits="userSpaceOnUse" id="linearGradient4095" x1="8.4787941" x2="36.183067" xlink:href="#linearGradient4120" y1="30.712189" y2="40.943935"/>
  </defs>
  <g id="g5022" style="opacity:1;display:inline" transform="matrix(2.3640267e-2,0,0,1.5678661e-2,45.026494,35.862725)">
    <rect height="478.35718" id="rect4173" style="opacity:0.40206185;fill:url(#linearGradient8268);fill-opacity:1;fill-rule:nonzero;stroke:none;stroke-width:1;stroke-linecap:round;stroke-linejoin:miter;marker:none;marker-start:none;marker-mid:none;marker-end:none;stroke-miterlimit:4;stroke-dasharray:none;stroke-dashoffset:0;stroke-opacity:1;visibility:visible;display:inline;overflow:visible" width="1339.6335" x="-1559.2523" y="-150.69685"/>
    <path d="M -219.61876,-150.68038 C -219.61876,-150.68038 -219.61876,327.65041 -219.61876,327.65041 C -76.744594,328.55086 125.78146,220.48075 125.78138,88.454235 C 125.78138,-43.572302 -33.655436,-150.68036 -219.61876,-150.68038 z" id="path5058" sodipodi:nodetypes="cccc" style="opacity:0.40206185;fill:url(#radialGradient8270);fill-opacity:1;fill-rule:nonzero;stroke:none;stroke-width:1;stroke-linecap:round;stroke-linejoin:miter;marker:none;marker-start:none;marker-mid:none;marker-end:none;stroke-miterlimit:4;stroke-dasharray:none;stroke-dashoffset:0;stroke-opacity:1;visibility:visible;display:inline;overflow:visible"/>
    <path d="M -1559.2523,-150.68038 C -1559.2523,-150.68038 -1559.2523,327.65041 -1559.2523,327.65041 C -1702.1265,328.55086 -1904.6525,220.48075 -1904.6525,88.454235 C -1904.6525,-43.572302 -1745.2157,-150.68036 -1559.2523,-150.68038 z" id="path5018" sodipodi:nodetypes="cccc" style="opacity:0.40206185;fill:url(#radialGradient8272);fill-opacity:1;fill-rule:nonzero;stroke:none;stroke-width:1;stroke-linecap:round;stroke-linejoin:miter;marker:none;marker-start:none;marker-mid:none;marker-end:none;stroke-miterlimit:4;stroke-dasharray:none;stroke-dashoffset:0;stroke-opacity:1;visibility:visible;display:inline;overflow:visible"/>
  </g>
  <g id="layer1">
    <g id="g2923" style="display:inline;enable-background:new" transform="translate(-296.00011,-55.999737)">
      <g id="g8979" style="opacity:0.8960396" transform="matrix(0.1964069,0,0,0.1996805,302.8947,50.396787)"/>
      <path d="M 298.575,87.751222 L 299.34032,87.363385 L 336.98555,87.398405 L 340.45123,87.576183 L 340.45123,93.424725 C 340.45123,94.055362 339.84364,94.457513 338.85785,94.457513 L 300.23841,94.457513 C 299.239,94.457513 298.575,94.153811 298.575,93.547239 L 298.575,87.751225 L 298.575,87.751222 z" id="path8985" style="fill:url(#linearGradient4095);fill-opacity:1;fill-rule:evenodd;stroke:none"/>
      <path d="M 298.85075,87.378245 C 298.13579,88.836549 298.85014,89.761327 299.88745,89.761327 C 299.88745,89.761327 338.92429,89.761327 338.92429,89.761327 C 340.0444,89.737617 340.77128,88.753555 340.35421,87.62722 L 333.63358,70.486835 C 333.44889,69.97702 332.9782,69.502773 332.48965,69.490917 L 306.60807,69.490917 C 305.98248,69.490917 305.57138,69.793249 305.32115,70.34456 C 305.32115,70.34456 298.85075,87.378245 298.85075,87.378245 L 298.85075,87.378245 z" id="path8987" style="fill:url(#radialGradient4092);fill-opacity:1;fill-rule:evenodd;stroke:none"/>
      <path d="M 340.1368,86.636171 C 340.2004,87.90818 339.72241,88.992836 338.81344,89.021238 C 338.81344,89.021238 300.6587,89.021236 300.6587,89.021238 C 299.36825,89.021238 298.7892,88.690561 298.57268,88.137878 C 298.66458,89.098856 299.39928,89.81626 300.6587,89.81626 C 300.6587,89.816258 338.81344,89.81626 338.81344,89.81626 C 339.89046,89.78261 340.5679,88.367132 340.16688,86.768675 L 340.13678,86.636171 L 340.1368,86.636171 z" id="path8989" style="fill:url(#radialGradient4089);fill-opacity:1;fill-rule:evenodd;stroke:none"/>
      <path d="M 306.59467,69.5 C 305.96908,69.5 305.56244,69.795295 305.31221,70.358626 C 305.31221,70.358626 298.83735,87.763684 298.83735,87.763684 C 298.83735,87.763684 298.58711,88.44708 298.58711,89.576333 C 298.58711,89.576333 298.58711,92.80376 298.58711,92.80376 C 298.58711,93.905455 299.24552,94.457408 300.24493,94.457406 L 338.84386,94.457406 C 339.82964,94.457406 340.43912,93.726564 340.43912,92.581152 L 340.43912,89.353727 C 340.43912,89.353727 340.54518,88.569724 340.34532,88.018092 L 333.62022,70.517631 C 333.43552,69.996701 332.98271,69.512114 332.49416,69.5 L 306.59471,69.5 L 306.59467,69.5 z" id="path8999" style="fill:none;stroke:url(#linearGradient10658);stroke-width:1;stroke-linecap:round;stroke-linejoin:round;stroke-miterlimit:4;stroke-dasharray:none;stroke-opacity:1"/>
      <path d="M 334.62368,80.618568 C 334.43304,79.152166 333.15543,77.753895 331.03264,76.65052 C 330.98994,76.226401 330.44582,70.800848 330.44582,70.800848 C 330.40412,70.383771 329.76994,70.068992 328.97012,70.068992 L 323.9508,70.068992 C 323.14523,70.068992 322.52251,70.387911 322.5022,70.81079 C 322.4101,72.7214 319.6016,73.718954 315.41223,74.626423 C 313.94432,74.839517 310.11727,75.841212 309.2389,76.280864 C 306.65322,77.435804 305.11116,78.975518 304.89749,80.618568 C 304.70312,82.11293 305.63737,83.608327 307.52821,84.829329 C 310.29572,86.616516 314.86841,87.68365 319.76041,87.68365 C 324.65242,87.68365 329.2251,86.616516 331.99296,84.829329 C 333.71991,83.714359 334.64873,82.370136 334.64873,81.007072 C 334.64873,80.877638 334.63973,80.748 334.62363,80.618568 L 334.62368,80.618568 z M 319.76041,86.942475 C 311.61261,86.942475 305.37358,83.947747 305.82496,80.476297 C 306.01967,78.97966 307.44897,77.381961 309.8159,76.329116 C 310.25915,76.049132 314.26229,74.960044 315.69836,74.768692 C 319.67847,73.908442 323.31827,72.79202 323.43238,70.439271 C 323.43738,70.326613 323.6667,70.237358 323.9508,70.237358 L 328.96945,70.237358 C 329.25998,70.237358 329.50514,70.330958 329.51665,70.446519 L 330.12616,76.525024 C 332.23575,77.549496 333.51403,79.078647 333.69553,80.476297 C 334.14724,83.947747 327.90822,86.942475 319.76041,86.942475 L 319.76041,86.942475 z" id="path9001" style="fill:url(#radialGradient4081);fill-opacity:1"/>
      <path d="M 319.6475,81.883652 C 316.82104,81.883652 314.65427,81.006976 314.6086,79.844145 C 314.60824,79.831575 314.60789,79.819215 314.60789,79.806855 C 314.60789,79.386077 314.89188,78.985894 315.43153,78.647059 C 316.34441,78.074315 317.92053,77.732445 319.64785,77.732445 C 321.37482,77.732445 322.95093,78.074315 323.86381,78.647059 C 324.4194,78.99543 324.70411,79.409491 324.68675,79.843927 C 324.64035,81.006758 322.4736,81.88365 319.6475,81.88365 L 319.6475,81.883652 z M 319.6475,78.383019 C 316.99171,78.383019 315.63868,79.25189 315.67055,80.045103 C 315.70135,80.825962 317.4818,81.449868 319.6475,81.449868 C 321.8132,81.449868 323.59363,80.825744 323.62444,80.045103 C 323.65594,79.251672 322.30328,78.383019 319.6475,78.383019 L 319.6475,78.383019 z" id="path9003" style="fill:url(#radialGradient4078);fill-opacity:1;fill-rule:nonzero;stroke-width:1;stroke-linecap:butt;stroke-linejoin:miter;marker:none;stroke-miterlimit:4;stroke-dasharray:none;stroke-dashoffset:0;stroke-opacity:1;visibility:visible;display:inline;overflow:visible;enable-background:accumulate"/>
      <g id="g9005" transform="matrix(-0.1320251,0,0,0.1401423,309.19335,61.406788)">
        <path d="M 48.2999,190.27968 C 48.61436,194.52728 53.32365,197.99124 58.81409,197.99124 C 64.30203,197.99124 68.45729,194.52728 68.09043,190.27968 C 67.72606,186.05454 63.01926,182.64298 57.58373,182.64298 C 52.1457,182.64498 47.99044,186.05454 48.2999,190.27968 z" id="path9007" style="fill:url(#linearGradient4138)"/>
        <path d="M 51.85122,187.29238 C 51.34959,187.83144 50.77559,188.69494 50.77559,189.84294 C 50.77559,189.92534 50.78059,190.00765 50.78559,190.095 C 51.00272,193.0224 54.67881,195.49559 58.81161,195.49559 C 61.16501,195.49559 63.31626,194.6845 64.56409,193.32188 C 65.10065,192.74039 65.71209,191.77707 65.60228,190.4943 C 65.35022,187.59186 61.67912,185.13863 57.58125,185.13863 C 55.24532,185.14063 53.10156,185.94473 51.85124,187.29238 L 51.85122,187.29238 z" id="path9009" style="fill:url(#radialGradient4140)"/>
      </g>
      <g id="g9017" transform="matrix(9.05434e-2,0,0,6.056511e-2,301.91757,58.935593)">
        <path d="M 48.2999,190.27968 C 48.61436,194.52728 53.32365,197.99124 58.81409,197.99124 C 64.30203,197.99124 68.45729,194.52728 68.09043,190.27968 C 67.72606,186.05454 63.01926,182.64298 57.58373,182.64298 C 52.1457,182.64498 47.99044,186.05454 48.2999,190.27968 z" id="path9019" style="fill:url(#linearGradient4134)"/>
        <path d="M 51.85122,187.29238 C 51.34959,187.83144 50.77559,188.69494 50.77559,189.84294 C 50.77559,189.92534 50.78059,190.00765 50.78559,190.095 C 51.00272,193.0224 54.67881,195.49559 58.81161,195.49559 C 61.16501,195.49559 63.31626,194.6845 64.56409,193.32188 C 65.10065,192.74039 65.71209,191.77707 65.60228,190.4943 C 65.35022,187.59186 61.67912,185.13863 57.58125,185.13863 C 55.24532,185.14063 53.10156,185.94473 51.85124,187.29238 L 51.85122,187.29238 z" id="path9021" style="fill:url(#radialGradient4136)"/>
      </g>
      <g id="g9023" transform="matrix(9.05434e-2,0,0,6.056511e-2,326.70176,58.935593)">
        <path d="M 48.2999,190.27968 C 48.61436,194.52728 53.32365,197.99124 58.81409,197.99124 C 64.30203,197.99124 68.45729,194.52728 68.09043,190.27968 C 67.72606,186.05454 63.01926,182.64298 57.58373,182.64298 C 52.1457,182.64498 47.99044,186.05454 48.2999,190.27968 z" id="path9025" style="fill:url(#linearGradient4130)"/>
        <path d="M 51.85122,187.29238 C 51.34959,187.83144 50.77559,188.69494 50.77559,189.84294 C 50.77559,189.92534 50.78059,190.00765 50.78559,190.095 C 51.00272,193.0224 54.67881,195.49559 58.81161,195.49559 C 61.16501,195.49559 63.31626,194.6845 64.56409,193.32188 C 65.10065,192.74039 65.71209,191.77707 65.60228,190.4943 C 65.35022,187.59186 61.67912,185.13863 57.58125,185.13863 C 55.24532,185.14063 53.10156,185.94473 51.85124,187.29238 L 51.85122,187.29238 z" id="path9027" style="fill:url(#radialGradient4132)"/>
      </g>
      <path d="M 42.5,187.25 L 42,215.5 L 45.125,217.25 L 45.125,187.25 L 42.5,187.25 z" id="path9029" style="opacity:0.5;fill:url(#radialGradient4104);fill-opacity:1;fill-rule:nonzero;stroke:none;stroke-width:1.54031181;marker:none;visibility:visible;display:inline;overflow:visible;filter:url(#filter4116);enable-background:accumulate" transform="matrix(0.6764069,0,0,0.1996805,270.95029,50.796148)"/>
      <path d="M 42.5,187.25 L 42,215.5 L 45.125,217.25 L 45.125,187.25 L 42.5,187.25 z" id="path9031" style="fill:url(#radialGradient4102);fill-opacity:1;fill-rule:nonzero;stroke:none;stroke-width:1.54031181;marker:none;visibility:visible;display:inline;overflow:visible;filter:url(#filter7527);enable-background:accumulate" transform="matrix(-0.1335567,0,0,0.1996805,345.55134,52.796148)"/>
      <g id="g7741" transform="matrix(1,0,0,0.8675042,0,25.228511)">
        <g id="g8991" transform="matrix(0.1964069,0,0,0.1996805,293.09232,34.304422)">
          <rect height="28.348066" id="rect8993" style="fill:url(#linearGradient7749);fill-opacity:1;fill-rule:evenodd;stroke:none;stroke-width:2.40899992;marker:none;visibility:visible;display:inline;overflow:visible" width="89.82196" x="61.369766" y="195.91609"/>
          <path d="M 61.369759,224.26414 C 61.369759,224.26414 61.369759,203.82049 61.369759,203.82049 C 70.724123,220.02272 103.65101,224.26414 127.30289,224.26414 C 127.30289,224.26414 61.369759,224.26414 61.369759,224.26414 z" id="path8995" style="opacity:0.81142853;fill:url(#linearGradient7751);fill-opacity:1;fill-rule:evenodd;stroke:none"/>
          <path d="M 61.456423,195.98396 L 61.456423,224.17277 L 125.47846,224.17277 L 63.208269,222.42092 L 61.456423,195.98396 L 61.456423,195.98396 z" id="path8997" style="opacity:0.43999999;fill:#ffffff;fill-opacity:1;fill-rule:evenodd;stroke:none"/>
        </g>
        <path d="M 306.4971,76.431125 C 307.65679,77.6956 309.3344,78.525089 311.99649,78.52777 C 309.48297,78.059464 307.63579,77.365342 306.4971,76.431125 z" id="path9041" style="opacity:0.55445545;fill:url(#radialGradient7753);fill-opacity:1;fill-rule:nonzero;stroke:none;stroke-width:1;marker:none;visibility:visible;display:inline;overflow:visible;enable-background:accumulate"/>
        <rect height="5.0602326" id="rect4142" style="opacity:0.48936169;fill:url(#linearGradient7755);fill-opacity:1;stroke:none" width="2.2318058" x="302.79639" y="73.836319"/>
      </g>
      <path d="M 161.5,187 L 152,218 L 208,218 L 222,187 L 161.5,187 z" id="path9033" style="opacity:0.67821781;fill:url(#linearGradient4100);fill-opacity:1;fill-rule:nonzero;stroke:none;stroke-width:1.54031181;marker:none;visibility:visible;display:inline;overflow:visible;filter:url(#filter7557);enable-background:accumulate" transform="matrix(-0.1964069,0,0,0.1996805,356.31738,50.796148)"/>
      <path d="M 332.78153,71.366432 L 339.06655,87.340869" id="path9035" style="opacity:0.8960396;fill:none;stroke:url(#radialGradient4063);stroke-width:0.99999988;stroke-linecap:butt;stroke-linejoin:miter;marker:none;stroke-miterlimit:4;stroke-dasharray:none;stroke-dashoffset:0;stroke-opacity:1;visibility:visible;display:inline;overflow:visible;enable-background:accumulate"/>
      <path d="M 306.10872,71.366432 L 299.8237,87.340869" id="path9037" style="opacity:0.8960396;fill:none;stroke:url(#radialGradient4060);stroke-width:0.99999988;stroke-linecap:butt;stroke-linejoin:miter;marker:none;stroke-miterlimit:4;stroke-dasharray:none;stroke-dashoffset:0;stroke-opacity:1;visibility:visible;display:inline;overflow:visible;enable-background:accumulate"/>
      <path d="M 308.1179,70.205932 L 308.0258,70.474252 L 306.65096,74.467862 L 306.41772,75.135543 L 307.09901,74.992023 L 318.68702,72.496017 L 318.72382,72.483537 L 318.75452,72.471057 C 319.36816,72.22151 319.69605,71.717214 319.77338,71.254253 C 319.81208,71.022772 319.80048,70.796101 319.69978,70.586572 C 319.60468,70.388771 319.3571,70.212784 319.09828,70.218411 L 319.09828,70.205931 L 319.05528,70.205931 L 308.39407,70.205931 L 308.11787,70.205931 L 308.1179,70.205932 z M 308.51012,70.452678 L 319.19013,70.452678 C 319.19513,70.486398 319.20713,70.505108 319.19613,70.568876 C 319.16263,70.769596 319.0185,71.487685 318.65641,71.644333 L 307.42399,74.065114 L 308.50977,70.452678 L 308.51012,70.452678 z" id="path9039" style="fill:url(#radialGradient4057);fill-opacity:1;fill-rule:nonzero;stroke:none;stroke-width:1;marker:none;visibility:visible;display:inline;overflow:visible;enable-background:accumulate"/>
      <g id="g9089" transform="matrix(0.1320251,0,0,0.1401423,329.80012,61.406788)">
        <path d="M 48.2999,190.27968 C 48.61436,194.52728 53.32365,197.99124 58.81409,197.99124 C 64.30203,197.99124 68.45729,194.52728 68.09043,190.27968 C 67.72606,186.05454 63.01926,182.64298 57.58373,182.64298 C 52.1457,182.64498 47.99044,186.05454 48.2999,190.27968 z" id="path9091" style="fill:url(#linearGradient4126)"/>
        <path d="M 51.85122,187.29238 C 51.34959,187.83144 50.77559,188.69494 50.77559,189.84294 C 50.77559,189.92534 50.78059,190.00765 50.78559,190.095 C 51.00272,193.0224 54.67881,195.49559 58.81161,195.49559 C 61.16501,195.49559 63.31626,194.6845 64.56409,193.32188 C 65.10065,192.74039 65.71209,191.77707 65.60228,190.4943 C 65.35022,187.59186 61.67912,185.13863 57.58125,185.13863 C 55.24532,185.14063 53.10156,185.94473 51.85124,187.29238 L 51.85122,187.29238 z" id="path9093" style="fill:url(#radialGradient4128)"/>
      </g>
      <path d="M 300.15376,87.041983 C 299.48387,88.400089 300.15318,89.261328 301.12509,89.261328 C 301.12509,89.261328 337.70075,89.261328 337.70075,89.261328 C 338.75023,89.239248 339.43128,88.322797 339.04051,87.273851 L 332.8686,71.311143 C 332.69555,70.836356 332.25454,70.394694 331.79679,70.383652 L 307.297,70.383652 C 306.71085,70.383652 306.32567,70.665212 306.09121,71.178644 C 306.09121,71.178644 300.15376,87.041983 300.15376,87.041983 L 300.15376,87.041983 z" id="path9099" style="fill:none;stroke:url(#linearGradient4048);stroke-width:1;stroke-linecap:butt;stroke-linejoin:miter;stroke-miterlimit:4;stroke-dasharray:none;stroke-opacity:1"/>
      <path d="M 299.68751,87.133654 L 299.68751,92.382453 C 299.68751,93.133753 300.07256,93.354724 300.64984,93.354724 L 338.92199,93.354724 C 339.45232,93.443114 339.76168,92.912783 339.71748,92.426647 L 339.45232,87.521094" id="path9109" style="opacity:0.25;fill:none;stroke:url(#linearGradient4045);stroke-width:1;stroke-linecap:butt;stroke-linejoin:miter;marker:none;stroke-miterlimit:4;stroke-dasharray:none;stroke-dashoffset:0;stroke-opacity:1;visibility:visible;display:inline;overflow:visible;enable-background:accumulate"/>
      <path d="M 322.61433,70.871152 L 329.90637,70.871152 L 329.90637,71.931812 L 324.64727,71.931812 C 322.14293,73.507421 319.6386,74.153569 317.13427,74.318297 C 319.19125,73.295909 322.66451,73.052478 322.61433,70.871152 L 322.61433,70.871152 z" id="rect9123" style="opacity:0.42079204;fill:#ffffff;fill-opacity:1;fill-rule:nonzero;stroke:none;stroke-width:1;marker:none;visibility:visible;display:inline;overflow:visible;enable-background:accumulate"/>
      <rect height="1.0606601" id="rect9125" style="opacity:0.31188121;fill:#ffffff;fill-opacity:1;fill-rule:nonzero;stroke:none;stroke-width:1;marker:none;visibility:visible;display:inline;overflow:visible;enable-background:accumulate" width="12.020816" x="307.58829" y="70.871155"/>
    </g>
  </g>
  <path d="M 13,11 C 11.942666,11 11,11.942666 11,13 L 11,35 C 11,36.057334 11.942653,37.000008 13,37 L 35,37 C 36.057331,37 37.000008,36.057345 37,35 L 37,13 C 37,11.942669 36.057333,11 35,11 L 13,11 z" id="path7573" inkscape:original="M 13 12.5 C 12.718439 12.5 12.5 12.718439 12.5 13 L 12.5 35 C 12.5 35.281561 12.718439 35.500002 13 35.5 L 35 35.5 C 35.281561 35.5 35.500002 35.281562 35.5 35 L 35.5 13 C 35.5 12.718439 35.281562 12.5 35 12.5 L 13 12.5 z " inkscape:radius="1.4999211" sodipodi:type="inkscape:offset" style="opacity:0.4;fill:url(#linearGradient5931);fill-opacity:1;fill-rule:evenodd;stroke:none;stroke-width:0.99999994;stroke-linecap:round;stroke-linejoin:round;stroke-miterlimit:4;stroke-dasharray:none;stroke-dashoffset:0.69999992;stroke-opacity:1;filter:url(#filter6711)" transform="matrix(0.8461538,0,0,0.8461538,15.692308,15.692309)"/>
  <rect height="8.9983292" id="rect6290" ry="0" style="opacity:1;fill:url(#linearGradient6292);fill-opacity:1;fill-rule:nonzero;stroke:#204a87;stroke-width:1;stroke-linecap:butt;stroke-linejoin:miter;stroke-miterlimit:4.19999981;stroke-dasharray:none;stroke-opacity:1" width="8.9986067" x="26.5" y="26.501671"/>
  <rect height="8.9983292" id="rect5519" ry="0" style="opacity:1;fill:url(#linearGradient5521);fill-opacity:1;fill-rule:nonzero;stroke:#ce5c00;stroke-width:1;stroke-linecap:butt;stroke-linejoin:miter;stroke-miterlimit:4.19999981;stroke-dasharray:none;stroke-opacity:1" width="8.9986067" x="36.5" y="26.501671"/>
  <rect height="8.9983292" id="rect5523" ry="0" style="opacity:1;fill:url(#linearGradient5527);fill-opacity:1;fill-rule:nonzero;stroke:#a40000;stroke-width:1;stroke-linecap:butt;stroke-linejoin:miter;stroke-miterlimit:4.19999981;stroke-dasharray:none;stroke-opacity:1" width="8.9986067" x="26.5" y="36.501671"/>
  <rect height="8.9983292" id="rect5525" ry="0" style="opacity:1;fill:url(#linearGradient5529);fill-opacity:1;fill-rule:nonzero;stroke:#42770c;stroke-width:1;stroke-linecap:butt;stroke-linejoin:miter;stroke-miterlimit:4.19999981;stroke-dasharray:none;stroke-opacity:1" width="8.9986067" x="36.5" y="36.501671"/>
</svg>
