<?xml version="1.0" encoding="UTF-8" standalone="no"?>
<!-- Created with Inkscape (http://www.inkscape.org/) -->

<svg
   xmlns:dc="http://purl.org/dc/elements/1.1/"
   xmlns:cc="http://creativecommons.org/ns#"
   xmlns:rdf="http://www.w3.org/1999/02/22-rdf-syntax-ns#"
   xmlns:svg="http://www.w3.org/2000/svg"
   xmlns="http://www.w3.org/2000/svg"
   xmlns:sodipodi="http://sodipodi.sourceforge.net/DTD/sodipodi-0.dtd"
   xmlns:inkscape="http://www.inkscape.org/namespaces/inkscape"
   height="4380.5566"
   id="svg2"
   inkscape:export-filename="/datas/Projs/Cliparts Stocker/arbre_modern.png"
   inkscape:export-xdpi="90.000000"
   inkscape:export-ydpi="90.000000"
   inkscape:version="0.47 r22583"
   sodipodi:docname="11949847191872520406arbre_modern_jean-victor_01.svg"
   sodipodi:version="0.32"
   width="2844.4749"
   version="1.1">
  <metadata
     id="metadata3">
    <rdf:RDF>
      <cc:Work
         rdf:about="">
        <dc:title>arbre_modern</dc:title>
        <dc:description>jean.victor.balin@gmail.com</dc:description>
        <dc:subject>
          <rdf:Bag>
            <rdf:li>evergreen</rdf:li>
            <rdf:li>plant</rdf:li>
          </rdf:Bag>
        </dc:subject>
        <dc:publisher>
          <cc:Agent
             rdf:about="http://www.openclipart.org/">
            <dc:title>Open Clip Art Library</dc:title>
          </cc:Agent>
        </dc:publisher>
        <dc:creator>
          <cc:Agent>
            <dc:title>Jean-Victor Balin</dc:title>
          </cc:Agent>
        </dc:creator>
        <dc:rights>
          <cc:Agent>
            <dc:title>Jean-Victor Balin</dc:title>
          </cc:Agent>
        </dc:rights>
        <dc:date>2005-07-31</dc:date>
        <dc:format>image/svg+xml</dc:format>
        <dc:type
           rdf:resource="http://purl.org/dc/dcmitype/StillImage" />
        <cc:license
           rdf:resource="http://web.resource.org/cc/PublicDomain" />
        <dc:language>en</dc:language>
      </cc:Work>
      <cc:License
         rdf:about="http://web.resource.org/cc/PublicDomain">
        <cc:permits
           rdf:resource="http://web.resource.org/cc/Reproduction" />
        <cc:permits
           rdf:resource="http://web.resource.org/cc/Distribution" />
        <cc:permits
           rdf:resource="http://web.resource.org/cc/DerivativeWorks" />
      </cc:License>
    </rdf:RDF>
  </metadata>
  <defs
     id="defs4">
    <inkscape:perspective
       sodipodi:type="inkscape:persp3d"
       inkscape:vp_x="0 : 156.25 : 1"
       inkscape:vp_y="0 : 1000 : 0"
       inkscape:vp_z="225 : 156.25 : 1"
       inkscape:persp3d-origin="112.5 : 104.16667 : 1"
       id="perspective24" />
  </defs>
  <sodipodi:namedview
     bordercolor="#666666"
     borderopacity="1.0"
     id="base"
     inkscape:current-layer="layer1"
     inkscape:cx="1422.2375"
     inkscape:cy="2034.7966"
     inkscape:document-units="px"
     inkscape:pageopacity="0.0"
     inkscape:pageshadow="2"
     inkscape:window-height="693"
     inkscape:window-width="1024"
     inkscape:window-x="0"
     inkscape:window-y="25"
     inkscape:zoom="0.1"
     pagecolor="#ffffff"
     showgrid="false"
     inkscape:window-maximized="0" />
  <g
     id="layer1"
     inkscape:groupmode="layer"
     inkscape:label="Calque 1"
     transform="translate(1309.7375,2034.0283)">
    <path
       d=""
       id="path1368"
       style="fill:#252525" />
    <path
       d=""
       id="path1366"
       style="fill:#000000" />
    <g
       id="g2058"
       transform="matrix(17.074417,0,0,17.074417,-1808.3719,-2511.6274)">
      <g
         id="g6534"
         style="fill:#007b00;fill-opacity:1">
        <path
           d="m 154,43.5 c -1.11685,-0.02525 -7.31072,0.07756 -9.78125,0.625 -1.5098,0.334555 -2.32263,0.564675 -2.71875,0.875 -0.099,0.07758 -0.17678,0.174763 -0.21875,0.28125 -0.042,0.106487 -0.029,0.207651 0,0.3125 0.058,0.209698 0.21535,0.388842 0.40625,0.59375 0.0797,0.08553 0.24272,0.329709 0.4375,0.65625 0.19478,0.326541 0.42803,0.753633 0.65625,1.1875 0.45645,0.867734 0.8973,1.827025 1.125,2.4375 0.46714,1.252306 0.80824,2.103075 1.09375,2.6875 0.28551,0.584425 0.5329,0.914052 0.84375,1.09375 a 0.18465752,0.18465752 0 0 0 0.0312,0 c -0.006,-0.0028 0.0131,0.02208 0.0312,0.03125 0.0121,0.0061 0.0115,-0.008 0.0312,0 0.008,0.003 0.023,0.02821 0.0312,0.03125 0.0138,0.0051 0.009,-0.0078 0.0312,0 0.0441,0.01555 0.10829,0.06606 0.1875,0.09375 0.15842,0.05539 0.39956,0.114671 0.6875,0.21875 0.57588,0.208158 1.38695,0.509173 2.375,0.90625 1.9761,0.794154 4.64084,1.970294 7.40625,3.46875 5.53083,2.996912 11.46175,7.342351 13.28125,12.6875 1.72088,5.055444 1.06664,9.564463 -0.0937,12.90625 -0.58019,1.670893 -1.28682,3.058802 -1.875,4.0625 -0.58818,1.003698 -1.05395,1.616401 -1.1875,1.8125 -0.27711,0.406889 -0.46815,0.750222 -0.5625,1.03125 -0.0472,0.140514 -0.0835,0.279912 -0.0625,0.40625 0.0105,0.06317 0.0353,0.103447 0.0937,0.15625 0.0584,0.0528 0.15019,0.09375 0.21875,0.09375 0.062,-3e-6 0.0751,-0.02287 0.0937,-0.03125 0.0187,-0.0084 0.046,-0.02151 0.0625,-0.03125 0.033,-0.01948 0.0505,-0.03217 0.0937,-0.0625 0.0864,-0.06066 0.21174,-0.146641 0.34375,-0.25 0.26403,-0.206718 0.6074,-0.503388 0.96875,-0.8125 0.70674,-0.604562 4.04492,-3.259923 4.40625,-3.53125 0.22143,-0.166275 1.00411,-0.864223 1.78125,-1.53125 0.77714,-0.667027 1.53133,-1.290903 1.59375,-1.34375 3.07057,-2.599931 6.83703,-6.50803 8.5,-9.125 1.38717,-2.182943 3.54988,-6.086383 2.34375,-13.5625 -0.45009,-2.789825 -1.80467,-5.375836 -3.25,-7.4375 -1.44533,-2.061664 -2.9723,-3.605188 -3.78125,-4.25 -0.23236,-0.178801 -4.29386,-3.319878 -9.46875,-4.90625 C 166.85176,44.268253 161.23907,43.663655 154,43.5 z"
           id="path3608"
           inkscape:original="M 154.00000 43.687500 C 152.91219 43.662910 146.66018 43.778435 144.25000 44.312500 C 141.24003 44.979476 141.07361 45.269405 141.81250 46.062500 C 142.23639 46.517500 143.62609 49.152443 144.09375 50.406250 C 145.02712 52.908439 145.41691 53.792809 145.93750 54.093750 C 145.95252 54.100424 145.98441 54.118694 146.00000 54.125000 C 146.17171 54.213693 166.42701 60.761422 170.12500 71.625000 C 173.59779 81.827021 167.42464 89.847205 166.93750 90.562500 C 166.39563 91.358156 166.18726 91.968751 166.46875 91.968750 C 166.53659 91.968747 167.18706 91.458976 167.90625 90.843750 C 168.62545 90.228526 171.92235 87.574217 172.31250 87.281250 C 172.70265 86.988286 175.54197 84.529458 175.68750 84.406250 C 178.74554 81.816925 182.51693 77.923504 184.15625 75.343750 C 185.53683 73.171179 187.66781 69.338555 186.46875 61.906250 C 185.58155 56.407002 181.07240 51.597102 179.50000 50.343750 C 179.26390 50.162074 175.22921 47.043035 170.09375 45.468750 C 166.82544 44.466844 161.23075 43.850967 154.00000 43.687500 z "
           inkscape:radius="0.18463905"
           sodipodi:type="inkscape:offset"
           style="fill:#007b00;fill-opacity:1;stroke:none" />
        <path
           d="m 133.65625,49.375 c -7.47225,0.08541 -12.19319,0.347484 -22.21875,2.59375 -7.58136,1.698639 -17.008916,5.456055 -27.15625,10.5 -5.019453,2.495029 -9.454534,4.962794 -12.71875,6.90625 -1.632108,0.971728 -2.975212,1.829313 -3.96875,2.46875 -0.993538,0.639437 -1.618216,1.074676 -1.875,1.28125 -0.37838,0.304389 -2.665867,1.960301 -5.25,4.125 -2.584133,2.164699 -5.490945,4.841404 -7.1875,7.34375 -0.991369,1.462225 -1.960692,3.430008 -2.65625,5.375 -0.695558,1.944992 -1.122558,3.860838 -1,5.34375 0.238019,2.879958 1.93908,5.37945 4.4375,7.96875 1.010987,1.04777 2.000151,1.83816 2.53125,2.125 3.383228,1.82727 6.568534,2.46317 7.9375,2.5625 2.984996,0.21662 14.967417,-0.13069 30.5,-5.96875 4.047994,-1.52148 8.84741,-3.657522 12.84375,-5.53125 3.99634,-1.873728 7.16945,-3.443358 8.03125,-3.9375 6.39965,-3.669486 11.96645,-8.238266 16.125,-12.15625 4.15855,-3.917984 6.88397,-7.153272 7.6875,-8.375 0.50105,-0.761833 1.71807,-2.430332 2.46875,-3.9375 0.74482,-1.495457 2.25727,-5.070599 2.625,-7.46875 0.18045,-1.176859 0.0699,-2.738243 0.0625,-3.03125 a 0.37923197,0.37923197 0 0 0 0,-0.03125 c -0.1812,-1.876353 -0.4984,-3.835132 -2.53125,-5.28125 -3.39128,-2.412465 -6.72904,-2.734854 -8.65625,-2.875 a 0.37923197,0.37923197 0 0 0 -0.0312,0 z"
           id="path3604"
           inkscape:original="M 133.65625 49.750000 C 126.19121 49.835327 121.53859 50.101566 111.53125 52.343750 C 104.00081 54.030980 94.567940 57.776953 84.437500 62.812500 C 74.419397 67.792216 66.831800 72.711954 65.968750 73.406250 C 65.105687 74.100544 56.902230 79.932634 53.593750 84.812500 C 51.658891 87.666332 49.772040 92.523016 50.000000 95.281250 C 50.227171 98.029953 51.870480 100.46801 54.343750 103.03125 C 55.331201 104.05463 56.337310 104.82273 56.781250 105.06250 C 60.109181 106.85990 63.273450 107.50022 64.562500 107.59375 C 67.443067 107.80279 79.429610 107.47328 94.906250 101.65625 C 102.96821 98.626088 114.08318 93.125309 115.71875 92.187500 C 128.44810 84.888641 137.89802 74.074430 139.40625 71.781250 C 139.92237 70.996508 141.11672 69.365944 141.84375 67.906250 C 142.57076 66.446553 144.08542 62.827360 144.43750 60.531250 C 144.60667 59.427949 144.50851 57.900128 144.50000 57.562500 C 144.32014 55.699997 144.04562 53.928781 142.12500 52.562500 C 138.81589 50.208491 135.57256 49.889353 133.65625 49.750000 z "
           inkscape:radius="0.37919405"
           sodipodi:type="inkscape:offset"
           style="fill:#007b00;fill-opacity:1;stroke:none" />
        <path
           d="m 150.96875,67.625 c -1.59853,-0.02798 -2.77883,0.04796 -3.03125,0.0625 a 0.69417414,0.69417414 0 0 0 -0.0625,0 c -1.92441,0.274746 -2.97976,0.415645 -3.71875,0.625 -0.73899,0.209355 -1.18908,0.580161 -1.59375,1 -0.87643,0.909245 -1.59162,2.196272 -3.0625,4.4375 -0.8709,1.327007 -3.93964,4.740445 -8.03125,8.40625 -4.09161,3.665805 -9.21944,7.635028 -14.28125,10.34375 -9.1654,4.904676 -18.915807,9.0072 -23.5,10.5 -9.693976,3.15676 -13.835029,4.70502 -23.5,5.4375 -0.01928,0.001 -0.633373,0.0206 -1.40625,0.0312 -0.772877,0.0106 -1.7835,0.0221 -2.75,0.0312 -1.933,0.0184 -3.78125,0.0312 -3.78125,0.0312 a 0.69417414,0.69417414 0 0 0 -0.5625,0.25 l -1,1.28125 c -1.14818,1.47855 -3.215327,5.30203 -0.3125,10.71875 2.524947,4.71161 6.280353,8.68525 11.96875,10.34375 3.913544,1.14103 11.142656,0.60414 18.75,-0.59375 7.607344,-1.19789 15.50574,-3.09106 20.4375,-4.875 9.42095,-3.4078 26.66643,-11.34961 34.1875,-15.875 0.23118,-0.1391 0.65984,-0.43781 1.3125,-0.90625 0.65266,-0.46844 1.48828,-1.05332 2.34375,-1.6875 1.71094,-1.26835 3.45862,-2.5974 4.15625,-3.28125 1.17191,-1.14876 3.34631,-3.25756 4.8125,-4.6875 1.48369,-1.447012 3.25558,-3.362553 4.03125,-4.28125 0.73167,-0.8666 1.6515,-1.87555 2.03125,-2.3125 0.69067,-0.79475 1.48601,-2.133833 2.28125,-3.5 0.79524,-1.366167 1.55845,-2.767759 2.0625,-3.625 1.30469,-2.218837 1.79268,-5.563656 1.34375,-8.625 -0.11895,-0.811124 -0.17991,-1.906597 -0.59375,-3.03125 -0.41384,-1.124653 -1.22164,-2.267299 -2.71875,-3.125 -0.019,-0.01089 -0.36106,-0.275758 -0.96875,-0.5625 -0.60769,-0.286742 -1.52764,-0.65675 -3.09375,-1.0625 -2.45464,-0.635959 -4.12827,-0.765383 -6.1875,-1.0625 -1.9709,-0.284376 -3.97251,-0.378419 -5.5625,-0.40625 z"
           id="path3612"
           inkscape:original="M 150.96875 68.312500 C 149.39822 68.285007 148.23443 68.359696 147.96875 68.375000 C 144.12296 68.924061 143.82237 68.992891 143.06250 69.781250 C 142.29575 70.576709 141.57459 71.868591 140.09375 74.125000 C 138.14536 77.093816 127.77741 87.625260 117.50000 93.125000 C 108.29608 98.050287 98.568940 102.13789 93.906250 103.65625 C 84.220280 106.81040 79.974220 108.38803 70.250000 109.12500 C 69.722460 109.16534 62.250010 109.21875 62.250000 109.21875 L 61.250000 110.50000 C 60.191030 111.86367 58.221720 115.28444 61.000000 120.46875 C 63.467940 125.07398 67.048380 128.87017 72.531250 130.46875 C 79.768760 132.57891 101.56908 128.51314 111.28125 125.00000 C 120.63232 121.61748 137.95029 113.65491 145.37500 109.18750 C 145.87411 108.88719 151.85609 104.55820 153.03125 103.40625 C 154.20641 102.25431 156.37893 100.14735 157.84375 98.718750 C 159.30856 97.290152 161.10376 95.376439 161.84375 94.500000 C 162.58373 93.623563 163.50171 92.585768 163.87500 92.156250 C 165.09506 90.752326 167.12535 86.909495 168.15625 85.156250 C 169.33723 83.147798 169.83316 79.879965 169.40625 76.968750 C 169.15449 75.252058 169.16788 72.876752 166.43750 71.312500 C 166.13854 71.141219 165.60538 70.577701 162.53125 69.781250 C 160.12504 69.157838 158.51679 69.018761 156.43750 68.718750 C 154.50935 68.440542 152.53928 68.339990 150.96875 68.312500 z "
           inkscape:radius="0.69410473"
           sodipodi:type="inkscape:offset"
           style="fill:#007b00;fill-opacity:1;stroke:none" />
      </g>
      <g
         id="g6528"
         style="fill:#64a74f;fill-opacity:1">
        <path
           d="m 153.25,28.96875 c -2.75867,-0.05599 -5.85979,0.136754 -9.3125,0.65625 -11.38006,1.712253 -16.02506,3.396139 -17.34375,3.8125 -0.81461,0.257205 -1.54144,0.541276 -2.0625,0.78125 -0.26053,0.119987 -0.47084,0.232088 -0.625,0.3125 -0.0771,0.04021 -0.14,0.06713 -0.1875,0.09375 -0.0475,0.02662 -0.0724,0.05592 -0.125,0.09375 A 0.35962595,0.35962595 0 0 0 123.5625,34.75 c -0.0721,0.06749 -0.13792,0.120257 -0.1875,0.21875 -0.0496,0.09849 -0.083,0.252572 -0.0312,0.40625 0.0517,0.153678 0.19666,0.266543 0.3125,0.3125 0.11584,0.04596 0.21803,0.0625 0.34375,0.0625 -0.0781,0 0.0378,-0.02212 0.15625,0 0.11843,0.02212 0.30676,0.05347 0.5,0.09375 0.38649,0.08055 0.89669,0.193069 1.4375,0.3125 1.08162,0.238862 2.25778,0.5188 2.875,0.65625 4.5491,1.013044 8.12714,4.172443 8.625,4.625 0.50133,0.455701 1.2349,1.170198 1.59375,1.59375 0.1967,0.232153 0.33365,0.437256 0.5625,0.5625 0.22885,0.125244 0.49135,0.109133 0.78125,0.0625 0.5798,-0.09327 1.50823,-0.374829 3.625,-0.6875 1.37662,-0.20334 9.63826,-1.61171 21.5,0.125 3.11496,0.456071 6.87416,1.162478 12,4.3125 1.16278,0.714577 4.31866,2.666663 6.5625,6.25 2.62057,4.184995 3.4846,7.702471 3.6875,10.21875 0.10145,1.25814 0.0304,2.278033 -0.0625,3 -0.0464,0.360984 -0.0803,0.630483 -0.125,0.84375 -0.0447,0.213267 -0.0753,0.333337 -0.0937,0.4375 L 187.46875,69 a 0.35962595,0.35962595 0 0 0 0.5,0.375 c 0,0 0.21436,-0.09288 0.46875,-0.3125 0.25439,-0.219619 0.59543,-0.572188 0.96875,-1.09375 0.74665,-1.043124 1.5963,-2.789874 2.15625,-5.59375 1.49512,-7.486645 -2.71326,-13.976673 -5.21875,-17.6875 -3.24518,-4.806374 -8.13499,-9.40624 -18,-12.78125 -1.63897,-0.560721 -6.81717,-2.769497 -15.09375,-2.9375 z"
           id="path3606"
           inkscape:original="M 153.25000 29.343750 C 150.51115 29.288157 147.43251 29.452293 144.00000 29.968750 C 132.64002 31.677982 128.04058 33.354031 126.68750 33.781250 C 125.09480 34.284126 123.88963 34.944511 123.81250 35.000000 C 123.61096 35.188535 123.61247 35.375000 124.00000 35.375000 C 124.22981 35.375001 127.83124 36.194558 129.06250 36.468750 C 133.72530 37.507114 137.32808 40.687504 137.84375 41.156250 C 138.35943 41.624991 139.08912 42.364420 139.46875 42.812500 C 140.25683 43.742628 139.83022 43.254771 144.09375 42.625000 C 145.43848 42.426370 153.80544 41.005739 165.71875 42.750000 C 168.84462 43.207669 172.67079 43.914770 177.84375 47.093750 C 179.00810 47.809291 182.23802 49.806533 184.53125 53.468750 C 189.83094 61.932241 188.05192 67.750008 187.96875 68.218750 L 187.81250 69.062500 C 187.81250 69.062497 190.11567 67.836012 191.21875 62.312500 C 192.68038 54.993552 188.53219 48.579094 186.03125 44.875000 C 182.81993 40.118775 178.02426 35.604653 168.21875 32.250000 C 166.52820 31.671633 161.46656 29.510535 153.25000 29.343750 z "
           inkscape:radius="0.35958999"
           sodipodi:type="inkscape:offset"
           style="fill:#64a74f;fill-opacity:1;stroke:none" />
        <path
           d="m 118.21875,35.71875 c -4.67802,0.01418 -17.16726,1.028867 -24.75,3.65625 -11.133612,3.857746 -26.631639,10.658992 -35.9375,18.15625 -7.422304,5.979769 -13.931119,14.305487 -16.4375,20.28125 -2.448838,5.83862 -3.847793,13.473232 -0.75,18.90625 3.585546,6.28848 9.177379,7.96124 11.59375,8.9375 1.123198,0.45378 4.1875,1.28125 4.1875,1.28125 a 0.69417414,0.69417414 0 0 0 0.59375,-1.21875 c 0,0 -0.869863,-0.66037 -1.90625,-1.5625 -1.036387,-0.90213 -2.237197,-2.04268 -2.78125,-2.84375 -1.287352,-1.895463 -3.522155,-4.506141 -2.5,-9.03125 0.92845,-4.110218 1.824221,-5.439127 4.25,-9.0625 2.070765,-3.093091 7.641506,-7.971716 14.9375,-12.875 C 76.014744,65.440466 85.0753,60.473416 94.28125,57 c 8.27999,-3.124056 10.19775,-4.837593 25.6875,-7.375 5.30333,-0.868748 9.84712,-1.002074 13.375,-0.75 3.52788,0.252074 6.04954,0.915847 7.21875,1.5 l 1.03125,0.5 a 0.69417414,0.69417414 0 0 0 0.96875,-0.84375 l -0.15625,-0.4375 c -0.002,-0.0061 0.002,-0.02508 0,-0.03125 -0.30443,-0.996243 -1.14187,-2.38273 -2.15625,-3.84375 -1.02066,-1.470072 -2.19622,-2.921756 -3.15625,-3.8125 -0.79133,-0.734201 -2.93193,-2.77351 -7.25,-4.34375 -3.57364,-1.299526 -7.76704,-1.855438 -11.625,-1.84375 z"
           id="path3602"
           inkscape:original="M 118.21875 36.406250 C 113.64245 36.420121 101.09620 37.464173 93.687500 40.031250 C 82.604747 43.871373 67.139830 50.673828 57.968750 58.062500 C 50.639081 63.967638 44.146360 72.305794 41.718750 78.093750 C 39.318741 83.815950 38.027540 91.271410 40.937500 96.375000 C 44.397471 102.44324 49.684120 103.98859 52.187500 105.00000 C 53.165371 105.39507 56.312500 106.28125 56.312500 106.28125 C 56.312501 106.28125 52.722940 103.53418 51.468750 101.68750 C 50.228071 99.860757 47.758370 96.930009 48.843750 92.125000 C 49.787791 87.945762 50.793720 86.466004 53.218750 82.843750 C 57.610021 76.284531 75.492620 63.338397 94.031250 56.343750 C 102.26601 53.236759 104.31334 51.481567 119.84375 48.937500 C 130.55390 47.183051 138.21418 48.420622 140.87500 49.750000 L 141.90625 50.250000 L 141.75000 49.781250 C 141.27796 48.209149 138.39176 44.045507 136.62500 42.406250 C 135.82472 41.663747 133.80426 39.749876 129.59375 38.218750 C 126.12360 36.956859 122.00652 36.394775 118.21875 36.406250 z "
           inkscape:radius="0.69410473"
           sodipodi:type="inkscape:offset"
           style="fill:#64a74f;fill-opacity:1;stroke:none" />
        <path
           d="m 146.5625,55.75 c -0.19991,0.03614 -0.44436,0.169407 -0.5625,0.34375 -0.12587,0.185745 -0.13545,0.370414 -0.15625,0.5625 -0.0416,0.384172 -0.0298,0.846532 0.0312,1.5 0.16336,1.747937 -0.31167,3.733306 -0.84375,5.3125 -0.26604,0.789597 -0.53715,1.459501 -0.75,1.96875 -0.10643,0.254625 -0.18344,0.4624 -0.25,0.625 -0.0333,0.0813 -0.0711,0.15427 -0.0937,0.21875 -0.0227,0.06448 -0.0625,0.08 -0.0625,0.28125 0,0.206974 0.0611,0.434432 0.15625,0.59375 a 0.52063062,0.52063062 0 0 0 0.28125,0.21875 c 0.0621,0.01923 0.30674,0.126763 0.625,0.125 a 0.52063062,0.52063062 0 0 0 0.0625,0 c 0.0191,4.79e-4 0.0387,8.82e-4 0.0625,0 0.0428,-0.0011 0.0389,0.0029 0.0625,0 0.0489,-0.006 0.10936,-0.02529 0.125,-0.03125 a 0.52063062,0.52063062 0 0 0 0.0312,-0.03125 c 0.027,2.02e-4 0.0435,0.0029 0.0625,0 2.49185,-0.383556 4.62982,-0.510585 6.53125,-0.4375 2.96508,0.113963 8.69739,1.105757 10.9375,1.6875 0.0328,0.0085 0.39109,0.139963 0.8125,0.28125 0.42141,0.141287 0.95463,0.305675 1.46875,0.46875 0.51412,0.163075 1.01211,0.312184 1.40625,0.40625 0.19707,0.04703 0.33735,0.08146 0.5,0.09375 0.0813,0.0061 0.18034,0.0021 0.3125,-0.03125 0.0661,-0.01667 0.15033,-0.03443 0.25,-0.125 0.0997,-0.09057 0.1875,-0.26421 0.1875,-0.40625 0,-0.369748 -0.12894,-0.450832 -0.25,-0.625 -0.12106,-0.174168 -0.2783,-0.374904 -0.46875,-0.59375 -0.3809,-0.437692 -0.9059,-0.973275 -1.46875,-1.53125 -1.12569,-1.11595 -2.46112,-2.310982 -3.3125,-3 -1.55424,-1.257848 -5.31149,-3.672234 -7.25,-4.65625 -1.33092,-0.675603 -3.16699,-1.502722 -4.78125,-2.15625 -0.80713,-0.326764 -1.57673,-0.617467 -2.1875,-0.8125 -0.30538,-0.09752 -0.57802,-0.168949 -0.8125,-0.21875 -0.22334,-0.04744 -0.39523,-0.06515 -0.625,-0.03125 -0.008,0.0011 -0.0232,-0.0014 -0.0312,0 z"
           id="path3610"
           inkscape:original="M 146.65625 56.250000 C 146.28999 56.293326 146.28539 56.800591 146.40625 58.093750 C 146.75660 61.842349 144.40625 66.285311 144.40625 66.562500 C 144.40625 66.722856 144.42779 66.806389 144.46875 66.875000 C 144.58267 66.910291 144.71239 66.969997 144.93750 66.968750 C 144.98627 66.964302 145.00239 66.976874 145.06250 66.968750 C 145.09677 66.967878 145.18207 66.938909 145.21875 66.937500 C 145.23539 66.934919 145.23339 66.940056 145.25000 66.937500 C 147.76606 66.550217 149.96197 66.394018 151.90625 66.468750 C 154.96033 66.586134 160.63317 67.589080 162.93750 68.187500 C 163.36049 68.297345 167.21876 69.691653 167.21875 69.375000 C 167.21875 68.858558 163.58554 65.365001 161.93750 64.031250 C 160.45564 62.831982 156.62306 60.388293 154.75000 59.437500 C 152.12504 58.105014 147.42883 56.114546 146.65625 56.250000 z "
           inkscape:radius="0.52057856"
           sodipodi:type="inkscape:offset"
           style="fill:#64a74f;fill-opacity:1;stroke:none" />
        <path
           d="m 55.625,107.5625 a 0.4173571,0.4173571 0 0 0 -0.28125,0.3125 c -1.099077,5.55935 -0.673215,9.31309 0.8125,12.40625 0.718945,1.49689 2.136661,4.1306 4.34375,5.75 0.304319,0.22329 1.096548,0.72842 1.78125,1.09375 0.342351,0.18267 0.616365,0.31616 0.90625,0.375 0.07247,0.0147 0.142122,0.0162 0.25,0 0.107878,-0.0162 0.291715,-0.0904 0.375,-0.25 0.08328,-0.15964 0.05913,-0.28137 0.03125,-0.375 -0.02788,-0.0936 -0.07832,-0.17502 -0.125,-0.25 -0.326071,-0.52376 -0.778359,-1.21823 -1.40625,-1.90625 -1.191208,-1.30528 -2.990456,-4.71812 -3.59375,-6.65625 -0.647742,-2.08093 -0.326713,-5.69343 0.9375,-7.53125 0.212752,-0.30929 0.394641,-0.61644 0.53125,-0.875 0.0683,-0.12928 0.11525,-0.26437 0.15625,-0.375 0.0205,-0.0553 0.05025,-0.092 0.0625,-0.15625 0.01225,-0.0643 0.04637,-0.14205 0,-0.28125 -0.05985,-0.17956 -0.156341,-0.23755 -0.21875,-0.28125 -0.06241,-0.0437 -0.123423,-0.0642 -0.1875,-0.0937 -0.128155,-0.0591 -0.291959,-0.10001 -0.46875,-0.15625 -0.353582,-0.11247 -0.802545,-0.23471 -1.28125,-0.34375 -0.95741,-0.21807 -1.952692,-0.40338 -2.5,-0.40625 a 0.4173571,0.4173571 0 0 0 -0.125,0 z"
           id="path3614"
           inkscape:original="M 55.750000 107.96875 C 54.661690 113.47364 55.088220 117.08946 56.531250 120.09375 C 57.238750 121.56681 58.650150 124.14678 60.750000 125.68750 C 61.279950 126.07634 63.929460 127.73437 63.375000 126.84375 C 63.056260 126.33177 62.603260 125.66103 62.000000 125.00000 C 60.713530 123.59033 58.942580 120.21168 58.312500 118.18750 C 57.615780 115.94922 57.930930 112.28967 59.312500 110.28125 C 59.722070 109.68583 60.041330 109.09283 60.000000 108.96875 C 59.907000 108.68973 56.621400 107.97332 55.750000 107.96875 z "
           inkscape:radius="0.41731536"
           sodipodi:type="inkscape:offset"
           style="fill:#64a74f;fill-opacity:1;stroke:none" />
      </g>
      <path
         d="m 147.34375,109.34375 c -1.69534,1.00101 -0.2227,0.0478 -1.59375,1.03125 -1.34352,0.98461 -6.82263,4.00314 -9.1875,5.15625 -2.10531,1.02654 -3.53213,1.70092 -3.96875,1.875 a 0.54879282,0.54879282 0 0 0 -0.0312,0.0312 c -0.41782,0.22457 -0.81352,0.4217 -1.0625,0.59375 a 0.54879282,0.54879282 0 0 0 -0.0312,0 c -0.0422,0.0224 -0.13725,0.10602 -0.21875,0.1875 -0.43252,0.43255 -0.62501,1.04303 -0.625,1.90625 0,0.5981 -0.16246,1.36673 -0.5,2.15625 -1.22282,2.8603 -2.48046,5.41939 -3.0625,6.21875 -0.53161,0.73011 -3.14419,5.03455 -3.46875,5.625 -0.48376,0.88014 -1.59831,2.75146 -2.65625,4.5 -1.05794,1.74854 -2.11181,3.43374 -2.34375,3.75 -0.0878,0.11977 -0.27213,0.36021 -0.53125,0.75 -0.25912,0.38979 -0.59146,0.88571 -0.9375,1.40625 -0.69209,1.04108 -1.43016,2.18661 -1.75,2.625 -0.68107,0.93352 -2.54779,3.44796 -2.875,3.9375 -0.10225,0.15296 -1.03822,1.52497 -2,2.9375 -0.48089,0.70627 -0.97269,1.43266 -1.375,2.0625 -0.40231,0.62984 -0.71491,1.13173 -0.875,1.5 -0.0717,0.16496 -0.23632,0.42861 -0.28125,0.90625 -0.0449,0.47764 -3.6e-4,1.17097 0.15625,2.5625 0.16658,1.48006 0.20604,2.34997 0.15625,2.6875 -0.0249,0.16877 -0.0684,0.15465 -0.0312,0.125 0.0372,-0.0297 0.0469,-0.0312 -0.0937,-0.0312 -0.0105,-0.0123 -0.0645,-0.0542 -0.125,-0.21875 -0.13439,-0.36564 -0.30946,-1.15827 -0.5,-2.4375 -0.48718,-3.27095 -0.42742,-6.97027 0.15625,-10.53125 0.30461,-1.85829 1.69795,-5.93122 2.40625,-7.625 2.08666,-4.98984 4.37855,-8.35554 5.59375,-10.3125 1.10421,-1.77825 4.78576,-6.91098 5.40625,-7.75 0.60701,-0.82081 1.00802,-1.41651 1.1875,-1.90625 0.0449,-0.12243 0.0533,-0.23096 0.0625,-0.375 0.009,-0.14404 0.001,-0.34962 -0.15625,-0.53125 -0.15765,-0.18163 -0.40342,-0.22535 -0.5625,-0.21875 -0.15908,0.007 -0.28332,0.0431 -0.40625,0.0937 -0.0861,0.0354 -0.16919,0.0811 -0.40625,0.1875 -0.23706,0.10635 -0.57417,0.2615 -0.96875,0.4375 -0.78915,0.35201 -1.83796,0.80577 -2.9375,1.28125 -1.09954,0.47548 -2.2396,0.95342 -3.21875,1.34375 -0.97915,0.39033 -1.82504,0.69719 -2.1875,0.78125 -0.38189,0.0886 -0.76309,0.18424 -1.09375,0.28125 -0.16533,0.0485 -0.32881,0.0915 -0.46875,0.15625 -0.13994,0.0648 -0.3457,0.083 -0.46875,0.46875 -0.12061,0.37804 -0.094,0.72942 -0.0625,1.15625 0.0315,0.42683 0.0954,0.90781 0.125,1.4375 0.0591,1.05938 0.0298,2.28039 -0.46875,3.53125 -0.52003,1.30463 -2.39496,5.45254 -3.59375,7.84375 -2.01187,4.01304 -4.19229,7.07034 -5.59375,8.90625 -0.196812,0.25783 -0.3285,0.30891 -0.5625,0.28125 -0.234,-0.0277 -0.602817,-0.20788 -1,-0.5625 -0.794366,-0.70924 -1.694275,-2.07353 -2.34375,-3.78125 -0.05551,-0.14595 -0.318177,-1.07936 -0.5625,-1.90625 -0.122161,-0.41345 -0.252722,-0.81448 -0.34375,-1.125 -0.09103,-0.31052 -0.121157,-0.48801 -0.15625,-0.59375 -0.775352,-2.33614 -1.117937,-4.09622 -1.34375,-7.28125 -0.09804,-1.38251 -0.201356,-2.29086 -0.3125,-2.90625 -0.05557,-0.30769 -0.106689,-0.56246 -0.21875,-0.78125 -0.112061,-0.21879 -0.356555,-0.43565 -0.65625,-0.46875 -0.153823,-0.017 -0.132755,-0.003 -0.15625,0 -0.02349,0.003 -0.04147,-0.004 -0.0625,0 -0.04205,0.008 -0.0982,0.0193 -0.15625,0.0312 -0.116091,0.024 -0.263634,0.0577 -0.4375,0.0937 -0.347732,0.072 -0.796966,0.16635 -1.15625,0.21875 -0.772786,0.1127 -2.254241,0.35245 -3.3125,0.53125 -1.017564,0.17193 -2.453705,0.27732 -3.09375,0.28125 -0.372153,0.002 -0.75402,0.0256 -1.0625,0.0625 -0.15424,0.0185 -0.280975,0.066 -0.40625,0.0937 -0.125275,0.0277 -0.209025,0.0198 -0.375,0.125 -0.04529,0.0287 -0.143867,0.0643 -0.25,0.1875 -0.106133,0.12319 -0.195803,0.36189 -0.1875,0.53125 0.01407,0.28776 0.08533,0.32943 0.15625,0.46875 0.07092,0.13932 0.166881,0.31002 0.28125,0.5 0.228738,0.37996 0.565179,0.8713 0.9375,1.4375 0.744643,1.13239 1.694046,2.56216 2.625,3.96875 1.841482,2.78233 2.937085,5.29222 3.9375,7.21875 0.98642,1.89958 1.565836,2.93123 2.25,4.75 1.91038,5.07865 2.523383,8.72852 3.1875,14.09375 0.125229,1.01166 0.361641,2.60899 0.53125,3.5625 0.825804,4.64173 0.969645,6.53351 1.03125,12.53125 0.03449,3.3556 -0.02255,7.75842 -0.125,9.71875 -0.104582,2.00137 -0.260513,5.97432 -0.3125,8.84375 -0.122373,6.75025 -0.223547,8.43235 -1.40625,15.8125 -0.08768,0.54714 -0.285473,1.86933 -0.46875,3.15625 -0.183277,1.28692 -0.371085,2.58655 -0.4375,2.875 -0.490972,2.13241 -0.904867,3.96792 -1.375,6.1875 -0.48226,2.277 -0.965046,4.12018 -1.40625,5.5 -0.104664,0.32732 -0.536684,1.82922 -0.96875,3.375 -0.216033,0.77289 -0.4302,1.5503 -0.59375,2.15625 -0.08177,0.30298 -0.13574,0.54751 -0.1875,0.75 -0.05176,0.20249 -0.07396,0.30869 -0.09375,0.4375 -0.05191,0.33776 0.101026,0.6371 0.28125,0.84375 0.180224,0.20665 0.399986,0.37096 0.65625,0.5 0.512528,0.25807 1.164338,0.42742 1.84375,0.40625 0.724625,-0.0226 3.436262,-0.24246 6.53125,-0.4375 3.09499,-0.19504 6.52374,-0.36416 8.46875,-0.375 0.99792,-0.006 1.9162,-0.0289 2.59375,-0.0625 0.33878,-0.0168 0.6212,-0.0303 0.84375,-0.0625 0.11128,-0.0161 0.20604,-0.0279 0.3125,-0.0625 0.0532,-0.0173 0.10969,-0.0439 0.1875,-0.0937 0.0778,-0.0498 0.19695,-0.15945 0.25,-0.375 0.0472,-0.19168 0.0178,-0.25287 0,-0.34375 -0.0178,-0.0909 -0.0314,-0.18347 -0.0625,-0.28125 -0.0623,-0.19556 -0.16964,-0.4371 -0.28125,-0.71875 -0.22322,-0.56329 -0.51579,-1.30112 -0.875,-2.1875 -0.71842,-1.77275 -1.62525,-4.1229 -2.28125,-6.5625 -0.11307,-0.4205 -0.41157,-1.76892 -0.6875,-3.0625 -0.13797,-0.64679 -0.27644,-1.2807 -0.375,-1.78125 -0.0986,-0.50055 -0.15542,-0.926 -0.15625,-0.9375 -0.0263,-0.36342 -0.15973,-1.10988 -0.3125,-2.09375 -0.15277,-0.98387 -0.3321,-2.17823 -0.53125,-3.40625 -0.3983,-2.45604 -0.83071,-5.02016 -0.90625,-5.78125 -0.12158,-1.22501 -0.30592,-2.37121 -0.21875,-9.5 0.0931,-7.61231 0.24945,-10.91931 0.75,-14.4375 0.0506,-0.3559 0.4007,-2.48066 0.71875,-4.5625 0.15903,-1.04092 0.31806,-2.06725 0.4375,-2.875 0.11944,-0.80775 0.20191,-1.3135 0.21875,-1.5625 0.0174,-0.25758 0.12387,-0.88309 0.3125,-1.625 0.18863,-0.74191 0.42782,-1.62162 0.6875,-2.5 0.51937,-1.75677 1.10428,-3.51458 1.3125,-4.15625 0.74463,-2.29459 2.21753,-5.59765 3.5,-8.34375 0.64124,-1.37305 1.22215,-2.60714 1.65625,-3.5 0.21705,-0.44643 0.4077,-0.80773 0.53125,-1.0625 0.0618,-0.12738 0.0905,-0.23914 0.125,-0.3125 0.0173,-0.0367 0.0505,-0.0664 0.0625,-0.0937 0.006,-0.0137 -0.007,-0.0119 0,-0.0312 0.004,-0.01 0.0247,-0.0414 0.0312,-0.0625 0.003,-0.0105 -0.005,-0.009 0,-0.0312 -0.002,0.006 0.027,-0.0388 0.0312,-0.0937 0.0312,-0.0737 0.0868,-0.1703 0.15625,-0.3125 0.13896,-0.2844 0.34,-0.67859 0.59375,-1.15625 0.50749,-0.95531 1.20844,-2.23783 1.96875,-3.59375 1.52061,-2.71184 3.29703,-5.78183 4.25,-7.28125 0.46011,-0.72396 1.06365,-1.7575 1.375,-2.34375 0.11365,-0.214 0.59359,-0.98533 1.21875,-1.9375 0.62516,-0.95217 1.41076,-2.12378 2.1875,-3.28125 0.77674,-1.15747 1.52338,-2.2936 2.125,-3.1875 0.60162,-0.8939 1.0274,-1.51017 1.15625,-1.71875 0.6344,-1.02695 3.43358,-4.87712 4.53125,-6.21875 0.82298,-1.00589 2.16233,-2.75275 3.3125,-4.28125 0.57508,-0.76425 1.0824,-1.48395 1.46875,-2 0.19318,-0.25802 0.3576,-0.4777 0.46875,-0.625 0.0556,-0.0737 0.0956,-0.11799 0.125,-0.15625 0.096,-0.0847 0.10834,-0.12664 0.1875,-0.21875 0.0792,-0.0921 0.19526,-0.20127 0.3125,-0.34375 0.23448,-0.28497 0.53343,-0.66596 0.875,-1.09375 0.68315,-0.85558 1.50799,-1.90211 2.1875,-2.78125 0.67931,-0.87887 1.56833,-1.91676 1.90625,-2.28125 1.05536,-1.13833 1.80015,-2.00561 2.28125,-2.625 0.24055,-0.30969 0.41545,-0.56286 0.53125,-0.78125 0.0579,-0.1092 0.10098,-0.21123 0.125,-0.375 0.012,-0.0819 0.0194,-0.1754 -0.0312,-0.3125 -0.0506,-0.1371 -0.17765,-0.28366 -0.3125,-0.34375 -0.3117,-0.13886 -0.45785,-0.0507 -0.59375,0 z"
         id="path3618"
         inkscape:original="M 147.71875 109.84375 C 147.57958 109.78175 147.04161 110.09494 146.06250 110.81250 C 144.59223 111.89000 139.21582 114.85939 136.81250 116.03125 C 134.70320 117.05973 133.30438 117.71014 132.81250 117.90625 C 132.39370 118.13135 131.98614 118.34876 131.81250 118.46875 C 131.74324 118.52523 131.69189 118.52688 131.62500 118.59375 C 131.30975 118.90902 131.18749 119.31715 131.18750 120.12500 C 131.18750 120.82863 130.98452 121.65906 130.62500 122.50000 C 129.39592 125.37493 128.17429 127.88644 127.50000 128.81250 C 127.10903 129.34945 124.29688 133.94860 124.06250 134.37500 C 123.07141 136.17816 119.62305 141.88056 119.03125 142.68750 C 118.81639 142.98046 116.49300 146.53601 115.81250 147.46875 C 115.13201 148.40147 113.24289 150.99610 112.96875 151.40625 C 112.69457 151.81640 109.24671 156.66986 108.75000 157.81250 C 108.54902 158.27483 108.34595 158.24291 108.65625 161.00000 C 108.99097 163.97398 108.92472 164.40624 108.15625 164.40625 C 107.57829 164.40624 107.38339 163.85523 107.00000 161.28125 C 106.50300 157.94435 106.56371 154.17762 107.15625 150.56250 C 107.48186 148.57608 108.86489 144.55545 109.59375 142.81250 C 111.70172 137.77169 114.01830 134.37071 115.21875 132.43750 C 116.36109 130.59785 120.01960 125.51712 120.65625 124.65625 C 121.84368 123.05058 122.13706 122.24326 121.43750 122.53125 C 121.23243 122.61568 113.40696 126.18049 111.62500 126.59375 C 110.85898 126.77140 110.05492 126.95282 110.00000 127.12500 C 109.71679 128.01270 110.64404 130.59915 109.56250 133.31250 C 109.02457 134.66205 107.17924 138.77295 105.96875 141.18750 C 103.93558 145.24302 101.72543 148.33657 100.31250 150.18750 C 99.154312 151.70475 96.815940 149.51102 95.468750 145.96875 C 95.290480 145.50001 94.425710 142.49655 94.375000 142.34375 C 93.588460 139.97390 93.227650 138.11719 93.000000 134.90625 C 92.804550 132.15007 92.676400 131.29019 92.312500 131.25000 C 92.260510 131.24426 91.261710 131.48265 90.500000 131.59375 C 89.738290 131.70483 88.242170 131.94681 87.187500 132.12500 C 86.132830 132.30320 84.703100 132.43318 84.000000 132.43750 C 83.296880 132.44183 82.594790 132.52532 82.437500 132.62500 C 82.344600 132.68387 82.275510 132.72667 82.281250 132.84375 C 82.298420 133.19503 84.321190 136.11767 86.187500 138.93750 C 88.057790 141.76336 89.170890 144.32121 90.156250 146.21875 C 91.141610 148.11629 91.711810 149.18516 92.406250 151.03125 C 94.333650 156.15515 94.959520 159.87376 95.625000 165.25000 C 95.748300 166.24607 95.989490 167.84376 96.156250 168.78125 C 96.984410 173.43622 97.157050 175.39923 97.218750 181.40625 C 97.253350 184.77278 97.197860 189.16410 97.093750 191.15625 C 96.989650 193.14840 96.833040 197.11017 96.781250 199.96875 C 96.658780 206.72437 96.527610 208.48763 95.343750 215.87500 C 95.174730 216.92967 94.612880 221.17579 94.437500 221.93750 C 93.946850 224.06851 93.531810 225.90931 93.062500 228.12500 C 92.577610 230.41442 92.105740 232.25052 91.656250 233.65625 C 91.487630 234.18359 89.879350 239.87747 89.812500 240.31250 C 89.730790 240.84420 90.872150 241.44237 92.031250 241.40625 C 93.357840 241.36493 103.10820 240.61578 107.06250 240.59375 C 109.05212 240.58264 110.67820 240.53977 110.71875 240.37500 C 110.82378 239.94810 108.55009 235.51365 107.21875 230.56250 C 106.96975 229.63650 106.00540 225.16174 105.96875 224.65625 C 105.88237 223.46415 104.41474 215.06615 104.25000 213.40625 C 104.13132 212.21047 103.91268 210.98451 104.00000 203.84375 C 104.09317 196.22459 104.27656 192.89105 104.78125 189.34375 C 104.88962 188.58204 106.08933 180.90234 106.12500 180.37500 C 106.21996 178.97099 108.05046 173.25780 108.46875 171.96875 C 109.99246 167.27338 114.37499 158.64866 114.37500 158.56250 C 114.37500 158.15858 119.50017 149.01700 121.43750 145.96875 C 121.88436 145.26564 122.47985 144.22377 122.78125 143.65625 C 123.38521 142.51903 129.10183 134.14452 129.50000 133.50000 C 130.18517 132.39086 132.92933 128.60377 134.06250 127.21875 C 135.67965 125.24218 139.43360 120.15235 139.50000 120.09375 C 139.69710 119.91984 141.64544 117.47127 143.00000 115.71875 C 143.69336 114.82170 144.57620 113.79596 144.93750 113.40625 C 147.03677 111.14193 147.95070 109.94710 147.71875 109.84375 z "
         inkscape:radius="0.54873794"
         sodipodi:type="inkscape:offset"
         style="fill:#815533;fill-opacity:1;stroke:none" />
      <path
         d="m 130.25,241.1875 c -1.59755,-0.0434 -5.38782,0.16905 -8.53125,0.1875 -5.09193,0.0299 -10.294,0.0905 -14.34375,0.15625 -2.02488,0.0329 -3.77801,0.0926 -5.0625,0.125 -1.28449,0.0324 -2.05319,0.025 -2.375,0.0625 -0.381495,0.0444 -1.985899,0.18642 -3.90625,0.3125 -1.920351,0.12608 -4.189644,0.24317 -6,0.34375 -2.445775,0.13585 -9.420175,1.35365 -12.96875,2.1875 -1.387336,0.32601 -6.625618,1.3211 -8.375,1.59375 -0.748457,0.11664 -3.430834,0.66384 -6.03125,1.21875 -1.300208,0.27745 -2.576994,0.54484 -3.53125,0.75 -0.477128,0.10258 -0.869275,0.18863 -1.15625,0.25 -0.286975,0.0614 -0.518535,0.13358 -0.46875,0.125 -0.948348,0.16342 -1.774035,0.35074 -2.34375,0.75 -0.284857,0.19963 -0.543652,0.52414 -0.53125,0.9375 0.0124,0.41336 0.285065,0.72734 0.625,1 0.613023,0.49169 1.51142,0.61166 2.6875,0.71875 1.17608,0.10709 2.602985,0.11519 4.03125,0.0937 2.85653,-0.0429 5.773584,-0.22643 6.8125,-0.25 6.137729,-0.13918 9.102197,-0.28988 11.5625,-0.625 1.211886,-0.16507 3.457386,-0.40688 4.96875,-0.53125 0.772003,-0.0635 3.963269,-0.3737 7.0625,-0.65625 3.099231,-0.28255 6.060551,-0.52851 6.59375,-0.59375 0.170555,-0.0209 1.17164,-0.1209 2.53125,-0.21875 1.35961,-0.0978 3.11182,-0.22222 4.90625,-0.34375 3.58886,-0.24306 7.37105,-0.46801 8.53125,-0.53125 2.34707,-0.12794 11.44974,-0.64612 15.8125,-0.625 4.39604,0.0213 13.60534,0.21604 15.84375,0.4375 4.94452,0.48921 11.75565,0.60926 17.21875,0.46875 2.73155,-0.0702 5.14524,-0.20473 6.8125,-0.40625 0.83363,-0.10076 1.47476,-0.22567 1.9375,-0.375 0.23137,-0.0747 0.40274,-0.1265 0.59375,-0.3125 0.0955,-0.093 0.20548,-0.23876 0.21875,-0.4375 0.0133,-0.19874 -0.0645,-0.39273 -0.15625,-0.5 -0.20702,-0.24204 -0.39695,-0.25941 -0.625,-0.34375 -0.22805,-0.0843 -0.50086,-0.17095 -0.8125,-0.25 -0.62328,-0.15809 -1.40646,-0.32567 -2.1875,-0.46875 -1.56208,-0.28617 -3.1708,-0.50782 -3.46875,-0.5625 -1.34375,-0.24657 -3.69334,-0.55291 -5.84375,-0.8125 -1.07521,-0.1298 -2.10248,-0.24358 -2.90625,-0.34375 -0.80377,-0.10017 -1.41763,-0.1867 -1.5625,-0.21875 -0.92947,-0.20563 -3.2351,-0.41974 -5.5625,-0.625 -2.3274,-0.20526 -4.66292,-0.41283 -5.34375,-0.5 -7.06296,-0.9043 -12.31043,-1.12377 -14.65625,-1.1875 z"
         id="path3620"
         inkscape:original="M 130.25000 241.71875 C 128.72394 241.67730 124.88278 241.88768 121.71875 241.90625 C 111.53896 241.96599 100.87626 242.14803 100.00000 242.25000 C 99.127892 242.35150 93.688080 242.70482 90.062500 242.90625 C 87.737330 243.03540 80.694820 244.23834 77.187500 245.06250 C 75.746680 245.40108 70.562500 246.37863 68.781250 246.65625 C 67.432360 246.86647 57.825040 248.96015 57.593750 249.00000 C 55.758300 249.31629 54.441030 249.88173 55.562500 250.78125 C 57.139460 252.04610 66.613320 251.26793 68.781250 251.21875 C 74.913960 251.07968 77.855060 250.92422 80.281250 250.59375 C 81.511700 250.42615 83.757830 250.18786 85.281250 250.06250 C 86.804660 249.93715 97.968778 248.92721 98.906250 248.81250 C 99.843742 248.69778 112.56255 247.84650 114.90625 247.71875 C 117.24995 247.59099 126.34294 247.07242 130.75000 247.09375 C 135.15705 247.11512 144.31254 247.29937 146.65625 247.53125 C 156.47025 248.50224 173.86106 248.06973 172.81250 246.84375 C 172.35337 246.30694 166.73436 245.50403 166.03125 245.37500 C 163.41392 244.89473 156.56638 244.19443 155.68750 244.00000 C 154.06065 243.64008 146.30857 243.09379 144.84375 242.90625 C 137.80222 242.00469 132.58382 241.78215 130.25000 241.71875 z "
         inkscape:radius="0.52057856"
         sodipodi:type="inkscape:offset"
         style="fill:#af708a;fill-opacity:1;stroke:none" />
      <path
         d="m 175.28125,246.8125 c -0.61194,0.57684 0.0266,0.27184 -0.28125,0.90625 -0.11377,0.16934 -0.43423,0.41303 -1.125,0.625 -0.69077,0.21197 -1.73707,0.3927 -3.375,0.53125 -6.53868,0.5531 -13.81769,0.5255 -19.46875,0.21875 -5.96827,-0.32828 -7.30125,-0.69342 -10.125,-0.8125 -1.94283,-0.0819 -6.29229,-0.12447 -10.40625,-0.125 -2.05698,-2.7e-4 -4.06575,0.0106 -5.65625,0.0312 -1.5905,0.0206 -2.78178,0.05 -3.25,0.0937 -0.35613,0.0333 -2.98015,0.2167 -5.59375,0.375 -2.6136,0.1583 -5.21612,0.29412 -5.5625,0.3125 -0.36215,0.0192 -3.61355,0.25348 -6.90625,0.46875 -1.64635,0.10763 -3.32213,0.19082 -4.625,0.28125 -1.302868,0.0904 -2.239762,0.15606 -2.5,0.1875 -0.955437,0.11546 -7.080137,0.86883 -8.15625,1.03125 -1.026677,0.15495 -6.498134,0.68983 -9.65625,0.9375 -3.583331,0.28101 -10.33649,0.45609 -11.9375,0.5625 -8.224745,0.54667 -11.600685,-0.16725 -12.9375,-0.9375 -0.668408,-0.38513 -0.846176,-0.75571 -0.90625,-1.03125 -0.03004,-0.13777 -0.01806,-0.24006 -0.03125,-0.34375 -0.0066,-0.0519 -0.01517,-0.11554 -0.09375,-0.1875 -0.03929,-0.036 -0.07795,-0.0624 -0.125,-0.0625 -0.02214,-3e-5 -0.0448,-0.004 -0.0625,0 -0.01991,0.005 -0.04573,0.0243 -0.0625,0.0312 -0.156654,0.0208 -0.383628,0.0825 -0.75,0.1875 -0.398828,0.11432 -0.926682,0.2795 -1.53125,0.46875 -1.209136,0.3785 -2.744488,0.86895 -4.28125,1.375 -3.073523,1.01211 -6.139411,2.04941 -6.53125,2.1875 -0.40641,0.14323 -1.485854,0.62123 -2.59375,1.125 -1.107896,0.50377 -2.211919,1.02116 -2.625,1.21875 -0.862601,0.41261 -1.780766,0.78305 -2.46875,1.1875 -0.343992,0.20222 -0.640534,0.41371 -0.84375,0.65625 -0.203216,0.24254 -0.298555,0.53467 -0.25,0.84375 0.09036,0.57519 0.373974,1.07467 0.84375,1.46875 0.469776,0.39408 1.092794,0.69762 1.875,0.9375 1.564412,0.47975 3.729372,0.69144 6.34375,0.75 5.228756,0.11712 12.284611,-0.40229 20,-0.84375 11.270053,-0.64483 11.844419,-0.83066 13.84375,-0.9375 0.958669,-0.0512 2.862418,-0.17426 4.84375,-0.1875 1.981332,-0.0132 4.066565,0.0611 5.3125,0.375 0.737388,0.18579 1.520013,0.72001 1.9375,1.34375 0.208744,0.31187 0.32303,0.63937 0.3125,0.96875 -0.01053,0.32938 -0.143981,0.66533 -0.46875,1 -0.54522,0.56217 -0.916627,1.01527 -2.5625,1.84375 -0.535389,0.26949 -2.096294,0.78895 -3.65625,1.25 -1.559956,0.46105 -3.152435,0.88993 -3.8125,1.03125 -0.66604,0.1426 -2.483377,0.4636 -4.28125,0.84375 -0.898937,0.19007 -1.812253,0.402 -2.5625,0.59375 -0.750247,0.19175 -1.317693,0.36245 -1.65625,0.53125 -0.429274,0.21403 -0.877228,0.43373 -1.1875,0.75 -0.310272,0.31627 -0.503845,0.75708 -0.4375,1.28125 0.120126,0.94906 0.591309,1.68871 1.28125,2.21875 0.689941,0.53004 1.603322,0.83243 2.65625,1 1.290442,0.20598 3.085188,0.16003 4.75,0.0312 1.664812,-0.12878 3.189545,-0.31327 3.9375,-0.375 1.516038,-0.12514 3.905536,-0.31831 5.3125,-0.4375 2.392995,-0.2027 7.190959,-0.37277 8.09375,-0.34375 2.616484,0.0841 5.446743,0.18669 7.53125,0.5625 1.042253,0.18791 1.9012,0.44534 2.4375,0.78125 0.26815,0.16796 0.42874,0.33458 0.53125,0.53125 0.10251,0.19667 0.15772,0.42745 0.0937,0.6875 -0.0517,0.21027 -0.38041,0.55111 -0.875,0.90625 -0.49459,0.35514 -1.138492,0.72583 -1.78125,1.0625 -0.642758,0.33667 -1.285281,0.64372 -1.78125,0.875 -0.247984,0.11564 -0.467235,0.20701 -0.625,0.28125 -0.07888,0.0371 -0.136474,0.0681 -0.1875,0.0937 -0.05103,0.0256 -0.08371,0.0629 -0.125,0.0937 -0.304431,0.22742 -0.473923,0.46662 -0.4375,0.71875 0.03642,0.25213 0.23805,0.42997 0.46875,0.5625 0.461399,0.26507 1.120539,0.40602 1.59375,0.375 1.316866,-0.0863 2.17705,-0.0955 7.34375,-0.9375 1.60528,-0.26161 3.14906,-0.27892 7.75,-0.1875 3.14886,0.0626 8.0626,0.57568 10.40625,0.84375 2.38545,0.27285 8.16311,1.18873 10.46875,1.375 0.96929,0.0783 1.83735,0.0713 2.53125,0.0312 0.34695,-0.0201 0.6696,-0.0455 0.90625,-0.0937 0.23665,-0.0482 0.40282,-0.10005 0.53125,-0.21875 0.09,-0.0831 0.10782,-0.19832 0.0937,-0.3125 -0.0141,-0.11418 -0.0543,-0.23742 -0.125,-0.34375 -0.14138,-0.21265 -0.35559,-0.44815 -0.65625,-0.6875 -0.60133,-0.4787 -1.49616,-0.98094 -2.4375,-1.375 -1.27425,-0.5334 -2.993,-1.31261 -4.0625,-2.28125 -0.53475,-0.48432 -0.91538,-0.99581 -1,-1.5625 -0.0846,-0.56669 0.0969,-1.18424 0.71875,-1.90625 0.19555,-0.22704 0.7335,-0.57959 1.5625,-0.90625 0.829,-0.32666 1.96081,-0.66619 3.375,-0.90625 4.02576,-0.68337 16.95647,-1.15822 17.75,-1.1875 0.0766,-0.003 0.50873,-0.0422 1.15625,-0.0937 0.64752,-0.0516 1.4933,-0.11413 2.375,-0.21875 0.8817,-0.10462 1.79557,-0.24355 2.5625,-0.40625 0.76693,-0.1627 1.37718,-0.35971 1.71875,-0.625 0.19492,-0.15138 0.33953,-0.32898 0.375,-0.5625 0.0355,-0.23352 -0.0417,-0.49143 -0.21875,-0.71875 -0.35406,-0.45464 -1.09364,-0.83636 -2.40625,-1.0625 -0.0463,-0.008 -0.46806,-0.10571 -1.0625,-0.25 -0.59444,-0.14429 -1.37279,-0.34943 -2.21875,-0.625 -1.69191,-0.55115 -3.6071,-1.38058 -4.59375,-2.40625 -0.39328,-0.40883 -0.77806,-0.99789 -0.90625,-1.625 -0.12819,-0.62711 -0.0193,-1.28068 0.625,-1.9375 1.24733,-1.2725 3.98843,-2.14302 7.34375,-2.3125 0.30699,-0.0155 1.09185,-0.11904 2.125,-0.25 1.03315,-0.13096 2.32122,-0.29482 3.59375,-0.46875 2.54505,-0.34787 5.04614,-0.72971 5.53125,-0.8125 1.60967,-0.27474 13.34891,-1.66624 15.28125,-1.78125 0.97896,-0.0582 3.44928,-0.15742 5.65625,-0.5 1.10348,-0.17129 2.13764,-0.40572 2.90625,-0.75 0.3843,-0.17214 0.71258,-0.3492 0.9375,-0.59375 0.22492,-0.24455 0.37228,-0.54629 0.34375,-0.875 -0.0435,-0.49148 -0.43518,-0.93761 -1,-1.34375 -0.56482,-0.40614 -1.32563,-0.78035 -2.25,-1.125 -1.84874,-0.6893 -4.28776,-1.26907 -6.78125,-1.5625 -0.6763,-0.0796 -2.82588,-0.41628 -4.84375,-0.75 -1.00893,-0.16686 -1.97937,-0.31914 -2.75,-0.4375 -0.38532,-0.0592 -0.71299,-0.12301 -0.96875,-0.15625 -0.25576,-0.0332 -0.42031,-0.0662 -0.53125,-0.0625 z"
         id="path3622"
         inkscape:original="M 175.28125 247.00000 C 174.68369 247.02013 177.08109 248.50581 170.50000 249.06250 C 163.95010 249.61655 156.68976 249.58840 151.03125 249.28125 C 145.05736 248.95266 143.71732 248.58730 140.90625 248.46875 C 137.03760 248.30562 123.41649 248.30135 121.62500 248.46875 C 120.86329 248.53995 111.14062 249.11895 110.43750 249.15625 C 109.73439 249.19358 97.394960 249.97808 96.437500 250.09375 C 95.480008 250.20946 89.335920 250.93457 88.281250 251.09375 C 87.226579 251.25292 81.756670 251.81445 78.593750 252.06250 C 74.999106 252.34440 68.237350 252.51991 66.656250 252.62500 C 50.180856 253.72006 53.107160 249.81204 52.500000 250.06250 C 51.655260 250.13705 40.167960 254.01282 39.406250 254.28125 C 38.644550 254.54970 35.007800 256.23263 34.187500 256.62500 C 32.449900 257.45616 30.558840 258.10707 30.718750 259.12500 C 31.388170 263.38641 44.190570 262.16437 59.625000 261.28125 C 70.893490 260.63651 71.460520 260.45107 73.468750 260.34375 C 75.384886 260.24136 81.091870 259.91642 83.656250 260.56250 C 85.220646 260.95666 86.928733 262.71617 85.531250 264.15625 C 84.989196 264.71516 84.565420 265.19608 82.906250 266.03125 C 81.756316 266.61007 76.753900 268.02397 75.406250 268.31250 C 74.058616 268.60104 68.165440 269.66903 66.937500 270.28125 C 66.087366 270.70512 65.317300 271.17534 65.437500 272.12500 C 65.666996 273.93815 67.151450 274.88975 69.218750 275.21875 C 71.738196 275.62090 76.358650 274.96890 77.875000 274.84375 C 79.391346 274.71858 81.781290 274.52538 83.187500 274.40625 C 85.591526 274.20262 90.338870 274.03221 91.281250 274.06250 C 96.515538 274.23079 102.61110 274.48660 102.03125 276.84375 C 101.73033 278.06706 96.820590 280.08054 96.593750 280.25000 C 95.477568 281.08382 97.270520 281.64977 98.125000 281.59375 C 99.448478 281.50699 100.27417 281.52899 105.43750 280.68750 C 107.05705 280.42356 108.61587 280.37729 113.21875 280.46875 C 116.38276 280.53164 121.31013 281.04415 123.65625 281.31250 C 126.05390 281.58675 131.81075 282.50306 134.09375 282.68750 C 136.01877 282.84304 137.63739 282.74612 137.93750 282.46875 C 138.34346 282.09355 136.72777 280.80684 134.87500 280.03125 C 132.32234 278.96270 127.89248 276.99112 130.46875 274.00000 C 130.93995 273.45292 132.65129 272.63983 135.50000 272.15625 C 139.57187 271.46505 152.48459 270.96690 153.28125 270.93750 C 153.52170 270.92804 159.86060 270.54120 161.00000 269.65625 C 161.66757 269.13777 161.39258 268.03826 158.81250 267.59375 C 158.56064 267.55037 152.90589 266.42495 150.84375 264.28125 C 150.02327 263.42833 149.20341 261.85420 150.56250 260.46875 C 151.86954 259.13534 154.65103 258.26449 158.03125 258.09375 C 159.17663 258.03590 168.31252 256.75375 169.25000 256.59375 C 170.89876 256.31234 182.58832 254.89875 184.56250 254.78125 C 186.53666 254.66378 194.41174 254.47369 194.21875 252.25000 C 194.07305 250.60552 189.30665 248.99027 184.34375 248.40625 C 182.95601 248.24296 175.87848 246.97990 175.28125 247.00000 z "
         inkscape:radius="0.17352618"
         sodipodi:type="inkscape:offset"
         style="fill:#cc8d9f;fill-opacity:1;stroke:none" />
      <path
         d="m 153.51578,27.975641 c -8.8696,-0.0998 -16.84827,1.687273 -18.43027,1.988302 -5.70371,1.085348 -12.97343,3.170019 -14.66815,4.201368 -0.61614,0.374953 -1.14967,0.442768 -3.94169,0.506026 -3.09685,0.07017 -12.33533,1.146481 -22.085467,3.495591 -1.820786,0.438683 -15.606345,5.578435 -21.09338,8.622448 -4.544495,2.521125 -9.743897,4.747225 -16.452556,10.400206 -1.292206,1.088864 -8.346969,7.569195 -10.879626,11.059379 -6.412128,8.836374 -8.720269,16.062977 -7.716916,24.382561 0.598835,4.965409 4.702398,9.496168 7.350725,11.185888 0.585036,0.37327 3.029325,1.53539 3.668691,1.77776 0,0 3.774477,1.3418 4.805694,1.82175 -0.315157,1.16394 -1.543793,6.82832 0.148056,11.85432 2.062833,6.12808 8.171892,9.72939 10.453491,10.57332 3.576951,1.32305 7.731579,2.70325 8.143048,2.70326 0.273063,0 0.849339,0.1503 1.285053,0.33291 0.545983,0.22885 1.551857,0.33627 3.235896,0.35288 2.698422,0.0266 2.315436,-0.13899 4.041582,1.76444 0.796259,0.87807 4.575164,6.72247 5.007008,7.60374 1.012452,2.06504 3.171888,5.43322 4.16141,8.58916 0.479586,1.52957 2.486713,6.69976 3.102769,13.21 0.123067,1.29526 0.460516,2.96693 0.632527,3.72863 1.231828,5.4548 1.524456,11.81351 1.052002,22.79789 -0.158753,3.69134 -0.299907,8.82087 -0.312947,11.39895 -0.0062,1.22609 -0.02203,2.23393 -0.05991,3.18931 -0.113631,2.86612 -0.439856,5.24547 -1.431539,11.51213 -0.3523,2.22653 -0.778837,4.62351 -0.945453,5.32662 -0.166657,0.70311 -1.393207,6.03505 -1.910933,8.20298 -0.517705,2.16793 -0.972922,4.28643 -1.091954,4.68742 -0.453081,1.52632 -1.38654,4.56895 -1.771098,5.11354 -0.206867,0.29296 -1.03807,1.25339 -2.190581,1.35829 -0.859461,0.0782 -9.54588,1.80519 -9.707728,1.90426 -0.09132,0.0559 -6.994262,1.42226 -7.943317,1.5314 -0.179209,0.0206 -9.352741,1.73163 -10.080889,1.91203 -2.558661,0.63393 -7.649541,1.82777 -9.521041,2.44247 -0.961334,0.31575 -8.28288,2.83243 -9.161771,3.12273 -0.87889,0.29028 -5.973288,2.56561 -8.535893,4.14144 -0.950812,0.58468 -2.300635,2.79726 -0.785676,4.16808 2.698347,2.44162 2.99884,2.53637 13.050197,2.53014 0.936331,-5.9e-4 2.754537,-0.0365 3.036165,-0.04 6.330808,-0.0402 10.483266,-0.16314 15.500443,-0.56595 0.820299,-0.0659 10.521923,-0.67036 11.765141,-0.79233 0.751998,-0.0738 9.252014,-0.56069 10.340296,0.31959 1.543677,1.24864 -1.042099,2.07312 -2.35038,2.5368 -1.319663,0.46771 -9.011286,2.39885 -9.421435,2.4902 -0.410149,0.0914 -5.580758,0.80731 -7.037795,2.27048 -1.066492,1.07098 -1.556492,3.45141 0.166466,5.28664 1.054649,1.12337 2.645714,2.26219 5.712792,2.23718 0.998826,0.14801 3.895374,-0.0428 4.354502,-0.1598 1.666869,-0.42473 11.8538,-1.16643 15.979836,-1.16519 4.123479,10e-4 8.099862,0.39562 8.555882,0.85226 0.42953,0.43013 -1.04971,1.04527 -1.864318,1.33165 -2.886424,1.01475 -3.97442,3.02563 -2.590071,4.20136 0.961272,0.81641 1.942844,1.12383 4.580889,1.12525 2.169753,10e-4 5.765953,-1.31944 10.919543,-1.14522 1.93397,0.0654 9.66236,0.45481 12.14467,0.71909 2.42429,0.2581 10.54486,1.39787 11.60534,1.48478 3.98991,0.32706 6.04658,-0.46433 5.72611,-2.1972 -0.25804,-1.39538 -2.37663,-2.83807 -5.45311,-4.19473 -1.24464,-0.54886 -3.01731,-1.07571 -3.0961,-2.31707 -0.0352,-0.55421 1.26413,-1.27588 2.35037,-1.47812 2.52714,-0.4706 4.2949,-0.66252 8.04319,-0.87889 2.16793,-0.12517 10.75281,-0.69904 12.56413,-0.77236 3.56651,-0.14437 6.69078,-0.76895 7.50387,-1.50479 0.96421,-0.87258 1.36428,-2.41834 0.5593,-3.54218 -1.1688,-1.63176 -6.80846,-1.67234 -10.02734,-4.05489 -1.48997,-1.10284 -0.59858,-1.94488 0.21306,-2.41694 1.67639,-0.975 2.49403,-0.99486 5.93778,-1.30447 3.56587,-0.32058 9.50281,-1.13394 12.43903,-1.74502 1.11326,-0.23169 10.37623,-1.38147 12.2512,-1.49145 1.87497,-0.10999 10.4918,-0.54708 11.87168,-2.33039 0.92772,-1.19896 0.7564,-2.82654 -0.61256,-4.1015 -0.54893,-0.51122 -1.83923,-1.11406 -3.38905,-1.75112 -2.12564,-0.87375 -11.70597,-2.20826 -12.75058,-2.37034 -1.04462,-0.16206 -11.9356,-2.13945 -12.6973,-2.31708 -1.26431,-0.29479 -8.47465,-1.10185 -9.5879,-1.27838 -3.03911,-0.48187 -11.97955,-1.09395 -13.21,-1.27173 -6.9029,-0.99735 -11.86534,-0.97493 -14.80798,-0.89887 -1.57367,0.0407 -12.08561,0.19516 -14.93447,0.13317 -0.57492,-0.0125 -0.69249,-0.11921 -0.93883,-0.86558 -0.15515,-0.47006 -1.87817,-3.4858 -2.9829,-6.56504 -0.57384,-1.59949 -2.19254,-8.36843 -2.46356,-11.00611 -0.0596,-0.58049 -0.91843,-5.82864 -1.15854,-7.99658 -0.37948,-3.42626 -0.42028,-4.79145 -0.31959,-10.44015 0.1165,-6.53739 0.39223,-11.67767 0.74572,-13.8492 0.10492,-0.64452 1.3161,-9.13263 1.5314,-10.01402 0.1288,-0.52734 1.66723,-6.19415 2.30376,-8.20298 0.68607,-2.16516 4.83111,-10.8917 5.24005,-11.39895 0.14172,-0.17578 1.21265,-2.18924 2.37701,-4.47435 1.16435,-2.28512 2.74946,-5.16149 3.52223,-6.39194 0.77274,-1.23045 1.63201,-2.6207 1.91091,-3.08944 3.97314,-6.67825 7.50803,-11.92524 11.77181,-17.46462 2.91212,-3.78334 4.82964,-6.27765 5.74607,-7.48389 0.34738,-0.45721 2.61373,-3.24958 3.19597,-4.05488 0.58224,-0.8053 1.43177,-1.84834 1.8843,-2.31708 0.81535,-0.84451 2.95482,-3.41816 5.03364,-6.05236 0.59316,-0.75161 1.51329,-2.35153 5.23417,-5.85283 2.09832,-1.97449 5.95737,-5.102117 6.49102,-5.579408 3.70627,-3.31486 6.801,-5.959079 7.54383,-6.4452 0.47946,-0.31377 2.15474,-1.662957 2.86305,-2.143956 0.70832,-0.481005 5.12433,-4.330536 5.92586,-5.033646 0.71692,-0.628908 2.48925,-2.362796 2.70325,-2.596724 1.49559,-1.537701 5.19478,-6.054835 7.92998,-10.899581 3.34101,-5.917789 4.32518,-9.668042 3.02184,-15.03978 -0.92945,-3.830762 -4.0067,-13.720119 -15.38622,-20.555297 -1.2741,-0.765293 -10.67527,-5.999421 -23.43689,-6.582507 z m 14.54933,4.158896 c 9.80552,3.354653 14.59164,7.874505 17.80296,12.630732 2.50094,3.704094 6.63511,10.112381 5.17348,17.43133 -1.10307,5.523512 -3.38239,6.75148 -3.38239,6.75148 l 0.15312,-0.852258 c 0.0832,-0.468742 1.85739,-6.271246 -3.4423,-14.734736 -2.29322,-3.662217 -5.5139,-5.663077 -6.67825,-6.378617 -5.17295,-3.17898 -9.01214,-3.896834 -12.13801,-4.354502 -11.91332,-1.744261 -20.28131,-0.325139 -21.62604,-0.126508 -4.26354,0.629771 -3.82611,1.129872 -4.61419,0.199745 -0.37962,-0.448081 -1.11558,-1.195823 -1.63126,-1.664563 -0.51568,-0.468747 -4.11279,-3.635739 -8.77559,-4.674102 -1.23126,-0.274192 -4.83831,-1.093143 -5.06812,-1.093143 -0.38752,0 -0.39462,-0.19099 -0.19308,-0.379524 0.0771,-0.05549 1.27629,-0.722721 2.86899,-1.225596 1.35308,-0.427219 5.9629,-2.089064 17.32288,-3.798295 13.73003,-2.06583 21.97374,1.497399 24.2278,2.268557 z m -49.83166,4.307898 c 3.78777,-0.01148 7.90218,0.555818 11.37232,1.81771 4.21051,1.531125 6.24415,3.445538 7.04442,4.188042 1.76677,1.639257 4.66815,5.805259 5.14018,7.377361 l 0.13983,0.472733 -1.02537,-0.512685 c -2.66081,-1.329378 -10.31803,-2.548445 -21.02818,-0.793995 -15.53042,2.544067 -17.57127,4.292003 -25.80604,7.398995 -18.538632,6.994647 -36.430534,19.934013 -40.821804,26.493233 -2.42503,3.622256 -3.44377,5.109034 -4.387807,9.288273 -1.085391,4.80501 1.403071,7.737548 2.643748,9.564298 1.254207,1.84667 4.834367,4.58033 4.834367,4.58033 0,0 -3.157809,-0.88194 -4.13567,-1.27701 -2.503392,-1.01141 -7.772505,-2.56472 -11.232479,-8.632958 -2.909953,-5.103591 -1.634327,-12.54142 0.765689,-18.263619 2.427596,-5.787957 8.943125,-14.122923 16.272797,-20.02806 9.17109,-7.388672 24.632445,-14.18935 35.715203,-18.029472 7.408686,-2.567077 19.932496,-3.629306 24.508796,-3.643176 z m 35.60173,7.137657 c 7.23074,0.163467 12.81805,0.762539 16.08636,1.764446 5.13545,1.574285 9.17869,4.712142 9.41479,4.893819 1.5724,1.253352 6.08399,6.072814 6.97119,11.572063 1.19906,7.432305 -0.92983,11.263808 -2.31041,13.436376 -1.63933,2.579753 -5.42458,6.465917 -8.48262,9.055239 -0.14553,0.123209 -2.97894,2.570091 -3.36909,2.863052 -0.39014,0.292968 -3.67525,2.953608 -4.39445,3.568829 -0.7192,0.615227 -1.3637,1.118593 -1.43154,1.118593 -0.28148,0 -0.0891,-0.595922 0.45277,-1.391581 0.48714,-0.715294 6.65543,-8.754052 3.18264,-18.956076 -3.69798,-10.863578 -23.95781,-17.39591 -24.12952,-17.484602 -0.0156,-0.0063 -0.0249,-0.01996 -0.04,-0.02663 -0.52059,-0.300941 -0.93095,-1.199802 -1.86432,-3.70199 -0.46765,-1.253808 -1.83325,-3.872878 -2.25714,-4.327877 -0.73889,-0.793095 -0.5858,-1.082489 2.42417,-1.749464 2.41018,-0.534065 8.65933,-0.658786 9.74714,-0.634195 z m -20.14791,6.065683 c 1.91632,0.139352 5.15856,0.457709 8.46766,2.811719 1.92062,1.366281 2.1855,3.11594 2.36535,4.978444 0.009,0.337627 0.11591,1.886258 -0.0533,2.98956 -0.35208,2.29611 -1.88496,5.895476 -2.61198,7.35517 -0.72702,1.459696 -1.9122,3.099243 -2.42833,3.883982 -1.50824,2.293179 -10.95411,13.102067 -23.68346,20.400923 -1.63556,0.93781 -12.74509,6.464528 -20.80706,9.494687 -15.476636,5.81702 -27.474659,6.12239 -30.355227,5.91335 -1.289039,-0.0935 -4.44206,-0.73356 -7.769991,-2.53096 -0.443931,-0.23977 -1.443214,-0.98721 -2.430664,-2.01059 -2.473256,-2.56324 -4.140255,-5.028345 -4.367428,-7.777051 -0.22796,-2.758233 1.667272,-7.586323 3.602127,-10.440158 3.308471,-4.879866 11.521309,-10.724629 12.384369,-11.418926 0.86306,-0.694296 8.445271,-5.606924 18.463378,-10.586639 10.13043,-5.035548 19.548696,-8.799538 27.079136,-10.486767 10.00733,-2.242185 14.68036,-2.491418 22.14539,-2.576744 z m 12.8105,6.478486 c 0.77258,-0.135454 5.45818,1.863484 8.08314,3.195971 1.87305,0.950793 5.70906,3.401593 7.19092,4.600858 1.64803,1.333752 5.27334,4.830147 5.27334,5.346586 0,0.316654 -3.83829,-1.068665 -4.26128,-1.178513 -2.30432,-0.598419 -7.99864,-1.607103 -11.05272,-1.72449 -1.94428,-0.07473 -4.12224,0.0788 -6.6383,0.466078 -0.0166,0.0026 -0.03,0.0041 -0.0466,0.0067 -0.0367,0.0014 -0.0989,0.0058 -0.13317,0.0067 -0.0601,0.0081 -0.0844,0.0022 -0.13316,0.0067 -0.007,6.1e-5 -0.007,-3.6e-5 -0.0133,0 -0.2251,0.0012 -0.33884,-0.03795 -0.45276,-0.07324 -0.041,-0.06861 -0.0666,-0.159238 -0.0666,-0.319597 0,-0.277188 2.33451,-4.714055 1.98416,-8.462653 -0.12086,-1.293159 -0.0999,-1.827649 0.26633,-1.870974 z m 9.78098,12.497563 c 2.07928,0.300013 3.67946,0.428597 6.08567,1.052006 3.07412,0.796452 3.62275,1.353464 3.92171,1.524742 2.73038,1.564254 2.71783,3.949496 2.96959,5.666185 0.42692,2.911215 -0.0841,6.161238 -1.26508,8.169687 -1.03091,1.753243 -3.06785,5.593916 -4.28791,6.997837 -0.3733,0.429516 -1.28414,1.493906 -2.02412,2.37034 -0.73999,0.87644 -2.54346,2.766114 -4.00827,4.194709 -1.46482,1.42859 -3.62546,3.53547 -4.80062,4.68741 -1.17516,1.15195 -7.16454,5.5057 -7.66365,5.80601 -7.4247,4.46741 -24.73924,12.41089 -34.09031,15.79341 -9.71218,3.51314 -31.494007,7.59052 -38.731518,5.48036 -5.482874,-1.59858 -9.063787,-5.40942 -11.531725,-10.01465 -2.778266,-5.18431 -0.819271,-8.6104 0.239703,-9.97407 l 0.985418,-1.26508 c 0,0 7.495683,-0.0662 8.023221,-0.10652 9.724225,-0.73697 13.964177,-2.29232 23.650151,-5.44647 4.662681,-1.51836 14.38629,-5.621394 23.59021,-10.546684 10.2774,-5.499739 20.63174,-16.034421 22.58013,-19.00324 1.48084,-2.256411 2.20756,-3.538514 2.97431,-4.333976 0.75987,-0.788358 1.06134,-0.875805 4.90713,-1.424869 0.53136,-0.03061 4.61967,-0.183548 8.47596,0.372863 z M 55.600394,107.85595 c 0.871409,0.005 4.133775,0.72274 4.226774,1.00176 0.04133,0.12408 -0.262921,0.7096 -0.672492,1.30502 -1.381554,2.00842 -1.685466,5.66064 -0.98875,7.89892 0.630078,2.02418 2.394921,5.40268 3.681397,6.81235 0.603259,0.66103 1.045727,1.33364 1.364466,1.84562 0.55446,0.89062 -2.102714,-0.7471 -2.63266,-1.13594 -2.099848,-1.54072 -3.5106,-4.11343 -4.218098,-5.58649 -1.443043,-3.00429 -1.848954,-6.63635 -0.760637,-12.14124 z m 91.962696,1.87399 c 0.23194,0.10335 -0.6972,1.2912 -2.79647,3.55552 -0.36129,0.38971 -1.22422,1.44 -1.91758,2.33705 -1.35458,1.75252 -3.31181,4.18059 -3.50891,4.3545 -0.0664,0.0586 -3.80932,5.16109 -5.42647,7.13766 -1.13317,1.38502 -3.89572,5.17626 -4.58089,6.2854 -0.39818,0.64452 -6.09426,9.01663 -6.69822,10.15385 -0.3014,0.56752 -0.91142,1.60731 -1.35828,2.31042 -1.93733,3.04825 -7.07108,12.18686 -7.07108,12.59078 0,0.0862 -4.36886,8.70771 -5.89257,13.40308 -0.41829,1.28904 -2.24208,7.01204 -2.33704,8.41605 -0.0357,0.52734 -1.24992,8.187 -1.35829,8.94871 -0.50468,3.54729 -0.67918,6.89585 -0.77235,14.51501 -0.0873,7.14076 0.12768,8.37214 0.24636,9.56792 0.16474,1.6599 1.63143,10.05372 1.71781,11.24582 0.0366,0.50548 0.9961,4.97322 1.2451,5.89922 1.33135,4.95116 3.60729,9.37406 3.50226,9.80096 -0.0405,0.16476 -1.66578,0.22193 -3.6554,0.23304 -3.95431,0.022 -13.701098,0.77099 -15.027687,0.81231 -1.159102,0.0361 -2.293361,-0.5733 -2.21165,-1.105 0.06685,-0.43503 1.67017,-6.12454 1.838786,-6.65188 0.449482,-1.40572 0.913345,-3.25025 1.398234,-5.53967 0.469298,-2.21569 0.874311,-4.04787 1.364956,-6.17888 0.175371,-0.7617 0.736497,-5.01766 0.905522,-6.07233 1.18385,-7.38738 1.34235,-9.14431 1.464817,-15.89993 0.0518,-2.85857 0.182195,-6.82339 0.286295,-8.81554 0.104107,-1.99216 0.161099,-6.37451 0.126501,-9.74104 -0.06171,-6.00701 -0.230493,-7.97576 -1.058655,-12.63073 -0.166766,-0.93749 -0.402694,-2.51949 -0.525991,-3.51556 -0.665464,-5.37624 -1.301865,-9.11147 -3.22927,-14.23537 -0.694426,-1.84609 -1.251815,-2.89641 -2.237178,-4.79395 -0.985357,-1.89754 -2.091361,-4.45828 -3.961652,-7.28414 -1.866298,-2.81983 -3.897891,-5.7477 -3.915061,-6.09898 -0.0057,-0.11708 0.0669,-0.15419 0.1598,-0.21306 0.157283,-0.0997 0.861563,-0.1821 1.56468,-0.18643 0.70311,-0.004 2.141296,-0.15472 3.195965,-0.33292 1.054668,-0.17819 2.540792,-0.41491 3.3025,-0.52599 0.761707,-0.1111 1.759057,-0.332 1.81105,-0.32626 0.363912,0.0402 0.503678,0.87923 0.699123,3.63541 0.227663,3.21094 0.571759,5.08741 1.35829,7.45726 0.05071,0.1528 0.933643,3.15335 1.111919,3.62209 1.34718,3.54227 3.682355,5.72528 4.840546,4.20803 1.41292,-1.85093 3.6197,-4.95311 5.65287,-9.00863 1.2105,-2.41455 3.05753,-6.50721 3.59546,-7.85676 1.08155,-2.71335 0.13625,-5.30448 0.41946,-6.19218 0.0549,-0.17218 0.87859,-0.35502 1.64461,-0.53267 1.78196,-0.41326 9.6092,-3.97045 9.81427,-4.05488 0.69956,-0.28799 0.40176,0.51166 -0.78567,2.11733 -0.63666,0.86087 -4.30412,5.9372 -5.44646,7.77685 -1.20044,1.93321 -3.51161,5.34609 -5.61958,10.3869 -0.72887,1.74295 -2.11796,5.75048 -2.44357,7.7369 -0.59255,3.61512 -0.6435,7.39622 -0.1465,10.73312 0.38339,2.57398 0.5806,3.11606 1.15856,3.11607 0.76848,0 0.83408,-0.42174 0.49936,-3.39572 -0.31029,-2.75709 -0.12108,-2.73363 0.0799,-3.19596 0.49672,-1.14264 3.94716,-5.99511 4.22134,-6.40526 0.27415,-0.41015 2.16925,-3.01562 2.84974,-3.94834 0.6805,-0.93274 3.00109,-4.49433 3.21595,-4.78729 0.5918,-0.80694 4.03589,-6.49305 5.02698,-8.29621 0.23437,-0.4264 3.03802,-5.03601 3.42899,-5.57296 0.67428,-0.92606 1.92029,-3.41713 3.14937,-6.29206 0.35952,-0.84094 0.55929,-1.69334 0.55929,-2.39697 0,-0.80786 0.11088,-1.20282 0.42613,-1.51809 0.0669,-0.0669 0.1105,-0.0634 0.17976,-0.11985 0.17365,-0.11999 0.58661,-0.34085 1.00541,-0.56595 0.49189,-0.19611 1.89898,-0.84249 4.00828,-1.87097 2.40332,-1.17186 7.75808,-4.13592 9.22835,-5.21342 0.97912,-0.71756 1.53871,-1.04743 1.67788,-0.98543 z m -18.60986,9.95411 c 0.93587,0.47883 -0.95659,4.70428 -3.0295,8.17635 -0.45476,0.7617 -3.8304,6.41856 -4.68741,7.88338 -1.6903,2.8891 -2.1778,3.69847 -3.04948,5.02033 -0.31328,0.47505 -5.51571,8.14686 -6.21883,9.15512 -0.70311,1.00825 -2.52632,3.54885 -2.74987,3.9883 -0.13945,0.27416 -0.26829,0.47465 -0.38615,0.6059 -0.31603,0.35179 -0.52881,0.14827 -0.57264,-0.51269 -0.002,-0.11936 -0.003,-0.21723 0,-0.35289 0.0301,-1.10718 0.68053,-4.94903 1.07199,-6.29205 1.27901,-4.38795 4.42787,-10.67193 8.04986,-16.05974 0.65837,-0.97935 2.24789,-3.21727 2.7898,-3.86179 0.54193,-0.64452 2.68445,-2.96091 3.46229,-4.3878 0.71285,-1.30768 0.93556,-1.8593 1.45151,-2.25049 1.30394,-0.98864 3.17276,-1.30763 3.86843,-1.11193 z m -21.44625,8.00989 c 0.95247,0.45715 0.87713,2.90369 0.3995,4.66745 -0.39925,1.47433 -0.53346,1.6902 -4.33455,9.56126 -1.09223,2.26173 -1.8065,3.01037 -2.96512,4.90021 -0.56523,0.92196 -1.320463,1.61101 -1.651801,1.57634 -0.784569,-0.0821 -1.926133,-2.47541 -2.440829,-4.3459 -0.283772,-1.03128 -0.763963,-2.60172 -1.138552,-3.98831 -0.361569,-1.33839 -0.793687,-3.75131 -0.892209,-6.61831 -0.102569,-2.98445 -0.298457,-2.67582 2.143963,-3.35577 0.70311,-0.19573 6.679568,-1.49591 7.031118,-1.61795 0.35156,-0.12205 3.23649,-0.66869 3.5422,-0.73907 0.12839,-0.0296 0.22485,-0.0432 0.30628,-0.04 z m 37.16643,115.09475 c 1.46481,0.18754 9.23943,0.73204 10.86628,1.09196 0.87889,0.19443 7.7163,0.91796 10.33363,1.39823 0.70311,0.12903 6.32677,0.90942 6.7859,1.44623 1.04855,1.22598 -16.36076,1.66872 -26.17476,0.69773 -2.34371,-0.23188 -11.48622,-0.42474 -15.89327,-0.44611 -4.40707,-0.0213 -13.50963,0.49147 -15.85333,0.61923 -2.34371,0.12775 -15.042344,0.98389 -15.979834,1.09861 -0.937481,0.11471 -12.112714,1.1264 -13.636123,1.25175 -1.523409,0.12535 -3.776567,0.36507 -5.007015,0.53267 -2.426189,0.33048 -5.372764,0.49346 -11.505479,0.63253 -2.167935,0.0492 -11.633032,0.8254 -13.209994,-0.43945 -1.121474,-0.89952 0.1878,-1.47478 2.023256,-1.79107 0.231281,-0.0399 9.83785,-2.12017 11.186738,-2.33039 1.781241,-0.27762 6.975218,-1.27272 8.416044,-1.6113 3.507319,-0.82416 10.56523,-2.01481 12.8904,-2.14396 3.62559,-0.20142 9.035383,-0.56433 9.907493,-0.66583 0.876244,-0.10197 11.552774,-0.25985 21.732564,-0.31959 3.16402,-0.0186 6.99652,-0.25452 8.52258,-0.21307 2.33382,0.0634 7.55339,0.29027 14.59492,1.19183 z m 30.64521,4.2538 c 0.59724,-0.0201 7.66836,1.25018 9.05609,1.41348 4.96291,0.58402 9.71045,2.19623 9.85614,3.84072 0.193,2.22368 -7.67364,2.41266 -9.64781,2.53014 -1.97419,0.11751 -13.65192,1.52963 -15.30069,1.81105 -0.93749,0.16001 -10.09376,1.44025 -11.23915,1.49811 -3.38021,0.17074 -6.15021,1.03026 -7.45726,2.36368 -1.3591,1.38545 -0.5275,2.97557 0.29297,3.8285 2.06213,2.14369 7.71143,3.25245 7.96328,3.29584 2.58008,0.44452 2.85149,1.55888 2.18391,2.07737 -1.13941,0.88495 -7.46316,1.27559 -7.70362,1.28506 -0.79667,0.0294 -13.71233,0.53391 -17.78421,1.22512 -2.84872,0.48358 -4.58241,1.28392 -5.05362,1.83101 -2.57628,2.99111 1.86177,4.97714 4.41442,6.0457 1.85277,0.77558 3.46211,2.05507 3.05614,2.43028 -0.30012,0.27737 -1.90346,0.36193 -3.82849,0.2064 -2.28299,-0.18444 -8.04251,-1.0907 -10.44016,-1.36494 -2.34613,-0.26835 -7.27615,-0.77606 -10.44016,-0.83894 -4.60289,-0.0915 -6.1573,-0.0509 -7.77685,0.21307 -5.16334,0.84149 -5.980357,0.81042 -7.30384,0.89719 -0.854481,0.056 -2.667827,-0.50283 -1.551648,-1.33664 0.226848,-0.16946 5.145538,-2.17242 5.446458,-3.39572 0.57984,-2.35716 -5.525461,-2.63624 -10.759746,-2.80452 -0.942376,-0.0303 -5.692424,0.14397 -8.09645,0.34761 -1.406227,0.11913 -3.79694,0.32094 -5.313295,0.44612 -1.516361,0.12515 -6.122979,0.775 -8.642428,0.37286 -2.067313,-0.329 -3.565714,-1.27629 -3.795212,-3.08943 -0.120203,-0.94966 0.66214,-1.43021 1.512274,-1.85407 1.22794,-0.61222 7.114174,-1.66593 8.46181,-1.95446 1.34763,-0.28853 6.367257,-1.69832 7.517189,-2.27713 1.659175,-0.83517 2.074634,-1.31873 2.616689,-1.87763 1.397467,-1.44008 -0.299907,-3.20797 -1.864314,-3.60212 -2.564365,-0.64609 -8.271008,-0.33544 -10.187149,-0.23304 -2.008237,0.10732 -2.580697,0.30738 -13.849187,0.95213 -15.434431,0.88312 -28.260738,2.09081 -28.930166,-2.17059 -0.159908,-1.01793 1.731362,-1.64573 3.468966,-2.47688 0.820298,-0.39237 4.458374,-2.08858 5.220079,-2.35702 0.761705,-0.26844 12.272043,-4.15346 13.116776,-4.228 0.60717,-0.25046 -2.319913,3.68512 14.155474,2.59007 1.581097,-0.10509 8.336974,-0.30404 11.931608,-0.58593 3.162924,-0.24804 8.639761,-0.81295 9.694429,-0.97211 1.054669,-0.15918 7.178909,-0.86306 8.136402,-0.97876 0.957467,-0.11567 13.319181,-0.9015 14.022291,-0.93882 0.70312,-0.0373 10.42418,-0.60795 11.18589,-0.67914 1.79148,-0.1674 15.41369,-0.18311 19.28233,-0.02 2.81108,0.11855 4.14668,0.4837 10.12056,0.8123 5.6585,0.30715 12.92273,0.33988 19.47262,-0.21416 6.58109,-0.55668 4.18311,-2.04367 4.78066,-2.06379 z"
         id="path1378"
         sodipodi:nodetypes="csssssssssscssssssssssssssssssssssssssscssssssscssssssssssssssssssssssssssssssssssssssssssssssssssssscsssccssccsssssssssssscsscccsssscccssssccscsssssssssssssscscsssssssssssssccsssssssssssssccssssssssssssccssssscscsssssssccsssssssssssssssssssssssssssssszsssssssssssssssssssssssssssssssscssccsssssssssssssccssssssssssccssssssssssssssssssscscsssssssssssssssssssssssssssssssssscsssssssszz"
         style="fill:#000000;fill-opacity:1" />
    </g>
  </g>
</svg>
