<?xml version="1.0" encoding="UTF-8" standalone="no"?>
<!-- Created with Inkscape (http://www.inkscape.org/) -->
<svg xmlns:dc="http://purl.org/dc/elements/1.1/" xmlns:cc="http://creativecommons.org/ns#" xmlns:rdf="http://www.w3.org/1999/02/22-rdf-syntax-ns#" xmlns:svg="http://www.w3.org/2000/svg" xmlns="http://www.w3.org/2000/svg" xmlns:xlink="http://www.w3.org/1999/xlink" xmlns:sodipodi="http://sodipodi.sourceforge.net/DTD/sodipodi-0.dtd" xmlns:inkscape="http://www.inkscape.org/namespaces/inkscape" width="310.10239" height="331.3877" id="svg4682" sodipodi:version="0.32" inkscape:version="0.46" sodipodi:docname="tree.svg" inkscape:output_extension="org.inkscape.output.svg.inkscape" version="1.0" inkscape:export-filename="/home/roger/mis-dibujos/open/tree.png" inkscape:export-xdpi="90" inkscape:export-ydpi="90">
  <defs id="defs3">
    <linearGradient inkscape:collect="always" id="linearGradient5963">
      <stop style="stop-color: rgb(46, 52, 54); stop-opacity: 1;" offset="0" id="stop5965"/>
      <stop style="stop-color: rgb(46, 52, 54); stop-opacity: 0;" offset="1" id="stop5967"/>
    </linearGradient>
    <linearGradient inkscape:collect="always" id="linearGradient5955">
      <stop style="stop-color: rgb(46, 52, 54); stop-opacity: 1;" offset="0" id="stop5957"/>
      <stop style="stop-color: rgb(46, 52, 54); stop-opacity: 0;" offset="1" id="stop5959"/>
    </linearGradient>
    <linearGradient inkscape:collect="always" id="linearGradient5791">
      <stop style="stop-color: rgb(238, 238, 236); stop-opacity: 1;" offset="0" id="stop5793"/>
      <stop style="stop-color: rgb(238, 238, 236); stop-opacity: 0;" offset="1" id="stop5795"/>
    </linearGradient>
    <linearGradient id="linearGradient5714">
      <stop style="stop-color: rgb(100, 98, 155); stop-opacity: 1;" offset="0" id="stop5716"/>
      <stop style="stop-color: rgb(186, 189, 182); stop-opacity: 0;" offset="1" id="stop5718"/>
    </linearGradient>
    <linearGradient id="linearGradient5699">
      <stop style="stop-color: rgb(233, 185, 110); stop-opacity: 1;" offset="0" id="stop5701"/>
      <stop style="stop-color: rgb(179, 120, 27); stop-opacity: 1;" offset="1" id="stop5703"/>
    </linearGradient>
    <inkscape:perspective sodipodi:type="inkscape:persp3d" inkscape:vp_x="0 : 526.18109 : 1" inkscape:vp_y="0 : 1000 : 0" inkscape:vp_z="744.09448 : 526.18109 : 1" inkscape:persp3d-origin="372.04724 : 350.78739 : 1" id="perspective4688"/>
    <inkscape:perspective id="perspective4697" inkscape:persp3d-origin="372.04724 : 350.78739 : 1" inkscape:vp_z="744.09448 : 526.18109 : 1" inkscape:vp_y="0 : 1000 : 0" inkscape:vp_x="0 : 526.18109 : 1" sodipodi:type="inkscape:persp3d"/>
    <inkscape:perspective id="perspective5050" inkscape:persp3d-origin="372.04724 : 350.78739 : 1" inkscape:vp_z="744.09448 : 526.18109 : 1" inkscape:vp_y="0 : 1000 : 0" inkscape:vp_x="0 : 526.18109 : 1" sodipodi:type="inkscape:persp3d"/>
    <linearGradient inkscape:collect="always" xlink:href="#linearGradient5699" id="linearGradient5785" gradientUnits="userSpaceOnUse" gradientTransform="translate(-180, -38)" x1="411" y1="803.31488" x2="516.32629" y2="818.31488"/>
    <linearGradient inkscape:collect="always" xlink:href="#linearGradient5714" id="linearGradient5787" gradientUnits="userSpaceOnUse" gradientTransform="translate(-6.15685, -18.3241)" x1="277" y1="629.36218" x2="297" y2="665.66248"/>
    <radialGradient inkscape:collect="always" xlink:href="#linearGradient5791" id="radialGradient5801" cx="218.5" cy="531.86218" fx="218.5" fy="531.86218" r="91.5" gradientTransform="matrix(1, 0, 0, 0.737705, 0, 139.505)" gradientUnits="userSpaceOnUse"/>
    <radialGradient inkscape:collect="always" xlink:href="#linearGradient5791" id="radialGradient5941" gradientUnits="userSpaceOnUse" gradientTransform="matrix(1, 0, 0, 0.737705, 0, 139.505)" cx="218.5" cy="531.86218" fx="218.5" fy="531.86218" r="91.5"/>
    <radialGradient inkscape:collect="always" xlink:href="#linearGradient5791" id="radialGradient5945" gradientUnits="userSpaceOnUse" gradientTransform="matrix(1, 0, 0, 0.737705, 0, 139.505)" cx="218.5" cy="531.86218" fx="218.5" fy="531.86218" r="91.5"/>
    <radialGradient inkscape:collect="always" xlink:href="#linearGradient5955" id="radialGradient5961" cx="218.5" cy="558.97327" fx="218.5" fy="558.97327" r="91.5" gradientTransform="matrix(1, 0, 0, 0.737705, 0, 139.505)" gradientUnits="userSpaceOnUse"/>
    <radialGradient inkscape:collect="always" xlink:href="#linearGradient5963" id="radialGradient5969" cx="204.24026" cy="499.64572" fx="204.24026" fy="499.64572" r="91.5" gradientTransform="matrix(1, 0, 0, 0.737705, 0, 139.505)" gradientUnits="userSpaceOnUse"/>
    <linearGradient inkscape:collect="always" xlink:href="#linearGradient5699" id="linearGradient6020" gradientUnits="userSpaceOnUse" gradientTransform="translate(-180, -38)" x1="411" y1="803.31488" x2="516.32629" y2="818.31488"/>
  </defs>
  <sodipodi:namedview inkscape:document-units="mm" id="base" pagecolor="#ffffff" bordercolor="#666666" borderopacity="1.0" inkscape:pageopacity="0.0" inkscape:pageshadow="2" inkscape:zoom="1" inkscape:cx="197.50153" inkscape:cy="204.13093" inkscape:current-layer="g5991" showgrid="false" inkscape:window-width="1272" inkscape:window-height="944" inkscape:window-x="0" inkscape:window-y="0" showguides="true" inkscape:guide-bbox="true"/>
  <metadata id="metadata4">
    <rdf:RDF>
      <cc:Work rdf:about="">
        <dc:format>image/svg+xml</dc:format>
        <dc:type rdf:resource="http://purl.org/dc/dcmitype/StillImage"/>
      </cc:Work>
    </rdf:RDF>
  </metadata>
  <g inkscape:label="Layer 1" inkscape:groupmode="layer" id="layer1" transform="translate(-29.4106, -624.976)">
    <g id="g5761" transform="matrix(0.981765, 0, 0, 0.981765, 0.531482, 17.439)">
      <g id="g5991" transform="matrix(0.554271, 0, 0, 0.554271, 12.9915, 426.279)">
        <path id="path3542" d="M 430.67979,513.48253 C 408.87139,514.45906 384.48503,508.88611 365.50044,522.75056 C 341.36898,537.21625 319.28318,555.14069 293.09482,565.99572 C 279.19309,576.9563 255.60905,568.13815 244.3615,578.91684 C 252.22554,592.96012 273.45898,590.22719 285.9487,599.38558 C 303.04927,604.69585 319.5172,616.16773 338.12433,612.22416 C 356.80622,611.34028 372.73878,601.5071 386.68219,589.78269 C 405.47322,577.10952 430.52498,570.62775 441.83221,549.04143 C 447.44582,538.89535 443.92959,515.64549 429.93198,516.34986 C 430.30808,519.67171 432.8378,522.17518 433.43633,525.42745" style="opacity: 1; fill: rgb(62, 103, 30); fill-opacity: 1; fill-rule: evenodd; stroke: none; stroke-width: 1.83768px; stroke-linecap: butt; stroke-linejoin: miter; stroke-opacity: 1;"/>
        <path style="fill: url(#linearGradient6020) rgb(0, 0, 0); fill-opacity: 1; fill-rule: evenodd; stroke: none; stroke-width: 1px; stroke-linecap: butt; stroke-linejoin: miter; stroke-opacity: 1;" d="M 210,942.36218 C 224,950.36218 346,941.36218 346,941.36218 C 346,941.36218 301,883.36218 316,855.36218 C 307.38415,839.31176 325,694.36218 325,694.36218 C 325,694.36218 369,626.36218 374,622.36218 C 379,618.36218 413,587.36218 409,585.36218 C 405,583.36218 381,589.36218 381,589.36218 L 306,650.36218 L 292.28249,609.91674 L 264,637.36218 C 264,637.36218 269,706.36218 268,712.36218 C 267,718.36218 242,826.36218 242,826.36218 L 217,931.36218 L 210,942.36218 z" id="path5697" sodipodi:nodetypes="ccccssccccsccc"/>
        <path style="fill: rgb(78, 154, 6); fill-rule: evenodd; stroke: none; stroke-width: 1px; stroke-linecap: butt; stroke-linejoin: miter; stroke-opacity: 1;" d="M 281,361.26931 L 222,368.26931 L 178,400.26931 L 114,407.26931 L 38,503.26931 C 38,503.26931 35,576.26931 38,587.26931 C 41,598.26931 97,630.26931 97,630.26931 C 97,630.26931 120,664.26931 136,667.26931 C 152,670.26931 208,685.26931 216,682.26931 C 224,679.26931 245,658.26931 245,658.26931 L 269,622.26931 L 326,576.26931 C 326,576.26931 393,583.26931 397,580.26931 C 401,577.26931 409,570.26931 409,570.26931 C 409,570.26931 428,598.26931 446,589.26931 C 464,580.26931 494,554.26931 494,554.26931 C 494,554.26931 516,573.26931 524,573.26931 C 532,573.26931 545,567.26931 545,567.26931 C 545,567.26931 554,548.26931 558,544.26931 C 562,540.26931 584,534.26931 584,534.26931 L 590,508.26931 C 590,508.26931 566,477.26931 559,469.26931 C 552,461.26931 556,436.26931 556,436.26931 L 539,417.26931 L 521,418.26931 L 473,400.26931 L 430,352.26931 C 430,352.26931 423,349.26931 419,350.26931 C 415,351.26931 392,364.26931 392,364.26931 L 347,367.26931 L 281,361.26931 z" id="path5710"/>
        <path style="opacity: 1; fill: rgb(46, 52, 54); fill-opacity: 1; fill-rule: nonzero; stroke: none; stroke-width: 3; stroke-linecap: round; stroke-linejoin: bevel; stroke-miterlimit: 4; stroke-dasharray: none; stroke-dashoffset: 0pt; stroke-opacity: 1;" d="M 270.24869,633.29809 C 269.85358,673.25141 272.55491,722.05902 258.45968,760.28571 C 241.92853,821.75233 232.48474,884.99754 213.21415,945.74833 C 223.92616,952.15111 200.56387,948.55714 212.09396,939.16251 C 229.1963,887.8236 236.52983,833.81432 250.71101,781.63907 C 261.69467,743.02966 269.39053,699.17361 265.09081,658.82226 C 264.26288,651.51167 264.73088,639.10098 270.24869,633.29809 z" id="path5629" sodipodi:nodetypes="ccccccc"/>
        <path style="opacity: 1; fill: rgb(46, 52, 54); fill-opacity: 1; fill-rule: nonzero; stroke: none; stroke-width: 3; stroke-linecap: round; stroke-linejoin: bevel; stroke-miterlimit: 4; stroke-dasharray: none; stroke-dashoffset: 0pt; stroke-opacity: 1;" d="M 344.44531,947.30811 C 331.23075,927.201 315.83127,906.98957 314.57332,881.93416 C 309.0039,834.4228 316.18373,786.59998 317.86391,739.05154 C 317.52884,711.62124 329.07243,686.52338 343.63411,663.97069 C 353.54385,643.84376 368.19055,626.30952 386.63456,613.52309 C 397.18257,603.74921 406.96555,580.54773 414.97866,575.94484 C 402.52225,598.04381 386.13596,617.54597 365.98399,632.77526 C 350.95584,652.19153 339.46869,674.34657 328.72088,696.32305 C 317.81904,729.66782 321.55779,765.54112 317.53483,800.00579 C 316.31009,840.47207 310.78117,884.65914 332.12905,921.18182 C 336.83921,928.81375 349.67487,937.19152 344.44531,947.30811 z" id="path5631"/>
        <path style="opacity: 1; fill: rgb(46, 52, 54); fill-opacity: 1; fill-rule: nonzero; stroke: none; stroke-width: 3; stroke-linecap: round; stroke-linejoin: bevel; stroke-miterlimit: 4; stroke-dasharray: none; stroke-dashoffset: 0pt; stroke-opacity: 1;" d="M 270.48779,881.08698 C 284.76967,893.69311 307.20069,876.35753 309.956,870.79889 C 308.28701,880.96024 270.95227,902.1395 270.48779,881.08698 z" id="path5635"/>
        <path style="opacity: 1; fill: rgb(46, 52, 54); fill-opacity: 1; fill-rule: nonzero; stroke: none; stroke-width: 3; stroke-linecap: round; stroke-linejoin: bevel; stroke-miterlimit: 4; stroke-dasharray: none; stroke-dashoffset: 0pt; stroke-opacity: 1;" d="M 284.82835,865.60583 C 296.96046,880.60427 322.77265,847.25604 304.3,869.80906 C 300.99152,876.36714 277.31041,874.45116 284.82835,865.60583 z" id="path5637"/>
        <path style="opacity: 1; fill: rgb(46, 52, 54); fill-opacity: 1; fill-rule: nonzero; stroke: none; stroke-width: 3; stroke-linecap: round; stroke-linejoin: bevel; stroke-miterlimit: 4; stroke-dasharray: none; stroke-dashoffset: 0pt; stroke-opacity: 1;" d="M 298.27541,830.14243 C 312.49837,824.4557 288.18898,840.79489 298.27541,830.14243 z" id="path5639"/>
        <path style="opacity: 1; fill: rgb(46, 52, 54); fill-opacity: 1; fill-rule: nonzero; stroke: none; stroke-width: 3; stroke-linecap: round; stroke-linejoin: bevel; stroke-miterlimit: 4; stroke-dasharray: none; stroke-dashoffset: 0pt; stroke-opacity: 1;" d="M 322.87581,701.14044 C 318.92074,710.26839 297.61466,716.0254 316.58451,705.35442 C 318.9544,704.41784 320.88524,702.65837 322.87581,701.14044 z" id="path5641"/>
        <path style="opacity: 1; fill: rgb(46, 52, 54); fill-opacity: 1; fill-rule: nonzero; stroke: none; stroke-width: 3; stroke-linecap: round; stroke-linejoin: bevel; stroke-miterlimit: 4; stroke-dasharray: none; stroke-dashoffset: 0pt; stroke-opacity: 1;" d="M 248.07814,956.36346 C 245.06684,942.36522 243.28439,906.26336 250.57854,905.04216 C 248.81218,921.93879 252.92517,940.80481 248.07814,956.36346 z" id="path5643"/>
        <path style="opacity: 1; fill: rgb(46, 52, 54); fill-opacity: 1; fill-rule: nonzero; stroke: none; stroke-width: 3; stroke-linecap: round; stroke-linejoin: bevel; stroke-miterlimit: 4; stroke-dasharray: none; stroke-dashoffset: 0pt; stroke-opacity: 1;" d="M 249.87374,930.94232 C 254.67785,936.03493 274.57268,960.80783 258.59202,949.84529 C 253.68185,945.28854 244.09568,938.59103 249.87374,930.94232 z" id="path5645"/>
        <path style="opacity: 1; fill: rgb(46, 52, 54); fill-opacity: 1; fill-rule: nonzero; stroke: none; stroke-width: 3; stroke-linecap: round; stroke-linejoin: bevel; stroke-miterlimit: 4; stroke-dasharray: none; stroke-dashoffset: 0pt; stroke-opacity: 1;" d="M 302.8158,654.83435 C 319.36258,634.89949 338.21271,617.11824 361.04772,604.59717 C 370.99323,599.09753 392.32579,581.5585 394.4893,581.83853 C 374.52377,601.0988 348.09901,612.6784 327.28676,630.2482 C 319.8729,639.147 311.09069,646.74506 302.8158,654.83435 z" id="path5651"/>
        <path style="opacity: 1; fill: rgb(46, 52, 54); fill-opacity: 1; fill-rule: nonzero; stroke: none; stroke-width: 3; stroke-linecap: round; stroke-linejoin: bevel; stroke-miterlimit: 4; stroke-dasharray: none; stroke-dashoffset: 0pt; stroke-opacity: 1;" d="M 305.87389,648.94124 C 298.23224,641.97229 287.54309,596.99438 296.89135,616.90733 C 299.50835,620.92925 311.4819,645.50981 305.87389,648.94124 z" id="path5655" sodipodi:nodetypes="ccc"/>
        <path style="opacity: 1; fill: rgb(46, 52, 54); fill-opacity: 1; fill-rule: nonzero; stroke: none; stroke-width: 3; stroke-linecap: round; stroke-linejoin: bevel; stroke-miterlimit: 4; stroke-dasharray: none; stroke-dashoffset: 0pt; stroke-opacity: 1;" d="M 327.8678,586.71234 C 309.95342,588.36534 303.95958,611.97062 288.1036,615.46542 C 277.35549,636.30976 245.04197,638.46455 247.15203,667.14307 C 233.25114,685.23717 204.17156,677.42943 184.60405,688.09263 C 162.76289,693.08343 142.83588,677.55622 121.57082,674.8115 C 100.30892,666.62475 96.488039,638.74785 74.26356,632.04307 C 48.580721,623.42634 23.104458,597.24147 31.139923,568.29447 C 34.942258,535.05984 31.03241,498.4889 58.329353,472.96233 C 67.969624,456.6842 91.948026,427.37522 97.277205,422.75708 C 98.28715,421.48485 126.15937,398.53135 142.6725,404.56577 C 165.30324,407.16829 191.09704,404.36733 203.08071,384.63935 C 233.4126,357.90197 276.3853,366.99069 313.3863,364.25983 C 342.78917,364.49836 374.29774,376.40574 401.91108,360.58244 C 419.25638,335.1291 448.11544,350.33093 457.57805,373.68069 C 479.00945,398.64272 509.1781,414.65875 541.68923,419.00881 C 566.96667,421.93561 567.16151,449.63911 569.67623,468.87908 C 578.52451,486.43019 605.45359,496.91213 598.30796,521.35145 C 596.88258,545.5699 562.9682,552.77262 553.73944,559.86722 C 555.12519,585.7477 519.01926,592.79241 501.89902,579.20335 C 482.24627,558.86781 465.68942,587.19506 448.79247,595.82842 C 424.32332,607.33498 402.3291,575.93878 378.79243,587.27871 C 365.76768,575.8236 339.01799,591.1239 333.35574,580.01823 C 356.60239,564.1088 382.17541,583.38255 405.54962,576.90797 C 423.17326,582.97233 442.7458,597.6876 461.01728,584.34674 C 474.96878,570.49005 494.48005,552.45268 512.12081,572.1156 C 519.44554,580.26321 553.65291,577.03539 542.0793,572.97667 C 543.3056,548.82953 569.32107,546.50576 586.18031,538.15004 C 600.72796,514.30052 577.4337,496.11391 562.85337,481.39107 C 554.46926,463.87512 563.77885,436.26396 539.3537,429.21466 C 514.8443,423.8863 490.22243,416.36788 469.48256,401.41459 C 449.90568,388.10531 436.24574,343.40519 407.26552,360.14499 C 386.96495,380.77108 354.27197,377.67477 327.96441,374.71336 C 291.77631,371.07513 254.05609,369.07608 218.78404,378.83928 C 196.01623,387.80436 189.97175,411.98066 162.36243,412.62884 C 139.10943,410.14708 112.36145,411.05043 94.464292,428.31071 C 82.885771,444.51444 62.600114,470.77787 50.064423,492.22868 C 35.483695,516.07155 47.15429,545.44234 38.75461,571.1129 C 38.110567,600.81466 66.780966,618.53472 90.906028,628.74358 C 109.07299,640.51092 114.87375,667.24116 140.27131,669.40409 C 161.95366,674.47478 185.7258,687.83662 207.26952,674.12638 C 221.45938,664.35546 247.39573,679.84698 241.1998,658.60322 C 247.38952,646.83307 255.95558,639.65997 257.5752,638.38964 C 272.46784,628.62855 287.81772,613.65483 291.72884,607.70461 C 303.7808,599.89005 302.39791,606.46854 306.80812,597.77307 C 308.93144,589.7274 344.41136,566.26261 327.8678,586.71234 z" id="path5707"/>
        <path style="opacity: 1; fill: rgb(46, 52, 54); fill-opacity: 1; fill-rule: nonzero; stroke: none; stroke-width: 3; stroke-linecap: round; stroke-linejoin: bevel; stroke-miterlimit: 4; stroke-dasharray: none; stroke-dashoffset: 0pt; stroke-opacity: 1;" d="M 112.6751,575.65704 C 105.88211,597.06154 129.26451,628.79631 152.16209,616.13902 C 172.81834,603.78563 196.34743,605.28283 218.33774,610.72978 C 232.286,618.92244 248.49413,616.85799 246.55146,597.74692 C 261.54381,614.96604 226.6423,629.91226 213.0759,615.36623 C 193.95335,613.61878 172.84129,604.0756 155.96451,618.54147 C 136.01284,630.92309 114.15003,616.87751 108.93751,596.02748 C 105.73505,589.30651 104.7723,579.54746 112.6751,575.65704 z" id="path5722"/>
        <path style="opacity: 1; fill: rgb(46, 52, 54); fill-opacity: 1; fill-rule: nonzero; stroke: none; stroke-width: 3; stroke-linecap: round; stroke-linejoin: bevel; stroke-miterlimit: 4; stroke-dasharray: none; stroke-dashoffset: 0pt; stroke-opacity: 1;" d="M 533.15186,476.19659 C 545.56969,499.08439 538.72014,525.55678 518.4582,540.93794 C 496.48094,562.16213 463.05857,564.49054 434.18216,562.57065 C 425.04661,560.06047 454.94767,559.91849 461.76648,558.7576 C 488.39253,558.56586 515.42083,548.44183 530.28447,525.30033 C 542.6373,510.00959 527.93778,492.73001 533.15186,476.19659 z" id="path5724"/>
        <path style="opacity: 1; fill: rgb(46, 52, 54); fill-opacity: 1; fill-rule: nonzero; stroke: none; stroke-width: 3; stroke-linecap: round; stroke-linejoin: bevel; stroke-miterlimit: 4; stroke-dasharray: none; stroke-dashoffset: 0pt; stroke-opacity: 1;" d="M 99.438095,535.79156 C 86.302675,552.54005 94.977794,575.20399 96.285238,594.2353 C 98.579127,604.30171 117.12034,618.45485 113.65719,623.28839 C 90.940695,610.07121 87.860722,580.72145 88.738144,557.00983 C 89.689244,548.94507 91.308086,539.69243 99.438095,535.79156 z" id="path5728"/>
        <path style="opacity: 1; fill: rgb(46, 52, 54); fill-opacity: 1; fill-rule: nonzero; stroke: none; stroke-width: 3; stroke-linecap: round; stroke-linejoin: bevel; stroke-miterlimit: 4; stroke-dasharray: none; stroke-dashoffset: 0pt; stroke-opacity: 1;" d="M 170.23288,645.82855 C 195.24168,648.34688 218.29846,634.31711 242.76289,633.88944 C 224.7736,642.25269 204.3412,643.52206 185.40633,649.24574 C 182.93353,650.18234 164.51275,650.22452 170.23288,645.82855 z" id="path5730"/>
        <path style="opacity: 1; fill: rgb(46, 52, 54); fill-opacity: 1; fill-rule: nonzero; stroke: none; stroke-width: 3; stroke-linecap: round; stroke-linejoin: bevel; stroke-miterlimit: 4; stroke-dasharray: none; stroke-dashoffset: 0pt; stroke-opacity: 1;" d="M 465.9873,485.62949 C 483.35861,507.50488 468.53825,543.15133 447.54983,556.24429 C 429.37987,560.3167 434.75045,553.00083 448.78305,552.55859 C 468.49292,539.1911 475.37221,510.98254 464.99001,489.99617 L 465.9873,485.62949 L 465.9873,485.62949 z" id="path5732"/>
        <path style="opacity: 1; fill: rgb(46, 52, 54); fill-opacity: 1; fill-rule: nonzero; stroke: none; stroke-width: 3; stroke-linecap: round; stroke-linejoin: bevel; stroke-miterlimit: 4; stroke-dasharray: none; stroke-dashoffset: 0pt; stroke-opacity: 1;" d="M 426.07706,431.11743 C 440.82828,458.8789 424.97494,489.70242 407.3871,511.7624 C 392.3777,526.64767 370.14802,549.79537 347.90388,541.92931 C 331.27041,530.00508 350.41267,533.43595 357.48868,539.84836 C 380.84296,539.16704 399.771,519.76292 412.79032,502.00076 C 429.96434,480.3449 428.23316,456.00636 426.07706,431.11743 z" id="path5734"/>
        <path style="opacity: 1; fill: rgb(46, 52, 54); fill-opacity: 1; fill-rule: nonzero; stroke: none; stroke-width: 3; stroke-linecap: round; stroke-linejoin: bevel; stroke-miterlimit: 4; stroke-dasharray: none; stroke-dashoffset: 0pt; stroke-opacity: 1;" d="M 343.02963,568.68616 C 336.27856,574.63511 326.95581,569.83628 319.20594,572.24449 C 312.46024,573.89008 306.32731,570.27645 299.84499,569.44248 C 292.43631,568.26217 284.57081,569.14679 277.50151,566.38492 C 272.49592,563.38997 268.89721,558.47211 263.49248,556.02184 C 259.17942,554.74733 254.34103,547.48724 262.17984,549.09854 C 267.95032,551.63144 270.93969,557.91534 276.62319,560.71588 C 282.29491,564.52937 289.19036,565.02885 295.7982,565.28411 C 303.39863,566.16522 311.02428,567.24712 318.53024,568.51438 C 325.10717,566.33055 331.41972,567.28077 338.0052,567.86165 C 340.80394,568.25018 348.2491,562.9304 343.67176,567.82261 L 343.02963,568.68616 L 343.02963,568.68616 z" id="path5736"/>
        <path style="opacity: 0.3; fill: rgb(255, 255, 255); fill-rule: evenodd; stroke: none; stroke-width: 1.83768px; stroke-linecap: butt; stroke-linejoin: miter; stroke-opacity: 1;" d="M 413.13007,359.92228 C 391.05348,389.10835 351.60051,387.83053 319.10276,392.29305 C 291.84662,390.25718 264.54387,366.09165 238.31559,386.08964 C 208.08551,401.86297 174.45701,409.4523 144.38426,425.7337 C 124.17062,423.23167 80.832946,439.49351 109.60731,462.70027 C 135.9696,476.31227 165.82812,458.45769 183.41233,438.59263 C 210.61247,411.83595 223.45541,463.58369 252.76452,458.8272 C 288.03899,465.4526 315.03715,437.75354 347.2081,429.32627 C 379.77971,426.08021 408.09318,402.98899 411.76505,369.28904 L 412.55635,364.59098 L 413.13007,359.92228 L 413.13007,359.92228 z" id="path2747"/>
        <path style="opacity: 1; fill: rgb(46, 52, 54); fill-opacity: 1; fill-rule: nonzero; stroke: none; stroke-width: 3; stroke-linecap: round; stroke-linejoin: bevel; stroke-miterlimit: 4; stroke-dasharray: none; stroke-dashoffset: 0pt; stroke-opacity: 1;" d="M 154.4238,477.65144 C 158.65279,448.18405 193.21391,423.21676 221.49641,438.29154 C 237.80711,446.5267 244.18618,467.32743 262.14998,472.58321 C 271.22723,488.12803 245.86643,470.83647 242.07162,464.96246 C 230.6157,448.96946 212.29355,432.65671 191.04152,438.81804 C 171.8416,441.85209 163.30556,458.94934 156.33565,474.88552 L 154.4238,477.65144 L 154.4238,477.65144 z" id="path5726"/>
        <path style="opacity: 0.5; fill: rgb(46, 52, 54); fill-rule: evenodd; stroke: none; stroke-width: 1.83768px; stroke-linecap: butt; stroke-linejoin: miter; stroke-opacity: 1;" d="M 268.0451,599.85352 C 244.81913,612.91932 221.05544,627.7346 193.82253,629.87912 C 176.60977,631.39183 159.2354,627.49925 143.83266,619.82052 C 131.97023,614.73619 120.7235,607.98933 111.69015,598.67498 C 106.81515,594.1348 101.64976,589.54703 95.248969,587.32856 C 89.613283,588.32505 82.131572,589.98266 80.275398,596.22763 C 80.374207,601.34766 84.127487,605.58129 86.785408,609.74117 C 90.322317,614.68296 95.184729,618.6229 97.480654,624.39364 C 99.909623,629.49759 103.05546,634.27397 107.2907,638.04171 C 112.40378,644.275 119.09275,649.46045 127.11203,651.17477 C 135.53092,654.30737 143.14324,659.57104 152.16466,660.97621 C 158.40784,662.31232 164.39551,664.55666 170.19955,667.13753 C 179.28135,669.86113 188.87059,670.88101 197.56562,674.84554 C 206.67738,677.80476 216.90819,674.12952 222.8678,666.82235 C 233.4089,656.86545 244.34096,647.26031 253.50415,635.96518 C 258.96203,629.94189 263.3922,622.91773 265.46637,615.00348 C 267.35808,610.23909 269.778,605.05133 268.0451,599.85352 z" id="path3526"/>
        <path style="opacity: 0.5; fill: rgb(46, 52, 54); fill-rule: evenodd; stroke: none; stroke-width: 1.83768px; stroke-linecap: butt; stroke-linejoin: miter; stroke-opacity: 1;" d="M 548.29132,487.755 C 526.48292,488.73153 502.09656,483.15858 483.11197,497.02303 C 458.98051,511.48872 436.89471,529.41316 410.70635,540.26819 C 396.80462,551.22877 373.22058,542.41062 361.97303,553.18931 C 369.83707,567.23259 391.07051,564.49966 403.56023,573.65805 C 420.6608,578.96832 437.12873,590.4402 455.73586,586.49663 C 474.41775,585.61275 490.35031,575.77957 504.29372,564.05516 C 523.08475,551.38199 548.13651,544.90022 559.44374,523.3139 C 565.05735,513.16782 561.54112,489.91796 547.54351,490.62233 C 547.91961,493.94418 550.44933,496.44765 551.04786,499.69992" id="path3528"/>
        <path style="opacity: 0.5; fill: rgb(46, 52, 54); fill-rule: evenodd; stroke: none; stroke-width: 1px; stroke-linecap: butt; stroke-linejoin: miter; stroke-opacity: 1;" d="M 395.76389,581.47669 C 399.42474,580.95196 406.09462,583.35743 406.78997,586.98973 C 408.73543,597.15224 387.49432,608.12305 383.81896,612.71725 C 384.0561,614.69468 366.20159,603.71515 382.90012,593.42161 C 387.13294,590.28833 390.55084,582.2239 395.76389,581.47669 z" id="path3538" sodipodi:nodetypes="csccs"/>
        <path sodipodi:nodetypes="csccs" id="path3540" d="M 289.17844,613.63609 C 292.83929,613.11136 299.50917,615.51683 300.20452,619.14913 C 302.14998,629.31164 280.90887,640.28245 277.23351,644.87665 C 277.47065,646.85408 259.61614,635.87455 276.31467,625.58101 C 280.54749,622.44773 283.96539,614.3833 289.17844,613.63609 z" style="opacity: 0.5; fill: rgb(46, 52, 54); fill-rule: evenodd; stroke: none; stroke-width: 1px; stroke-linecap: butt; stroke-linejoin: miter; stroke-opacity: 1;"/>
      </g>
    </g>
  </g>
</svg>